<svg xmlns="http://www.w3.org/2000/svg" xmlns:xlink="http://www.w3.org/1999/xlink" id="body_1" preserveAspectRatio="xMinYMin meet" viewBox="0 0 793 1121"><defs><clipPath id="1"><path id="" clip-rule="evenodd" transform="matrix(1 0 0 1 0 0)" d="M0 841L0 -0.9199829L0 -0.9199829L595.32 -0.9199829L595.32 -0.9199829L595.32 841L595.32 841L0 841z" /></clipPath><clipPath id="2"><path id="" clip-rule="evenodd" transform="matrix(1 0 0 1 0 0)" d="M52.48 69.56L542.72 69.56L542.72 69.56L542.72 770.52L542.72 770.52L52.48 770.52z" /></clipPath><clipPath id="3"><path id="" clip-rule="evenodd" transform="matrix(1 0 0 1 0 0)" d="M0.5 -0.4199829L594.75 -0.4199829L594.75 -0.4199829L594.75 840.53L594.75 840.53L0.5 840.53z" /></clipPath><clipPath id="4"><path id="" clip-rule="evenodd" transform="matrix(1 0 0 1 0 0)" d="M54.48 71.56L493.08 71.56L493.08 71.56L493.08 492.04L493.08 492.04L54.48 492.04z" /></clipPath><clipPath id="5"><path id="" clip-rule="evenodd" transform="matrix(1 0 0 1 0 0)" d="M52.5 69.58002L543.7 69.58002L543.7 69.58002L543.7 770.53L543.7 770.53L52.5 770.53z" /></clipPath><clipPath id="6"><path id="" clip-rule="evenodd" transform="matrix(1 0 0 1 0 0)" d="M51.48 68.56L496.08 68.56L496.08 68.56L496.08 495.04L496.08 495.04L51.48 495.04z" /></clipPath></defs><g transform="matrix(1.333333 0 0 1.333333 0 0)"><g clip-path="url(#1)"><g clip-path="url(#2)"><g clip-path="url(#3)"><g clip-path="url(#4)"><path id="1" transform="matrix(1 0 0 -1 0 841)" d="M54.36 769.56L493.08 769.56L493.08 769.56L493.08 745.92L493.08 745.92L54.36 745.92z" stroke="none" fill="#00B0F0" fill-rule="evenodd" /></g></g></g><g clip-path="url(#5)"><g clip-path="url(#6)"><path id="885" transform="matrix(1 0 0 -1 0 841)" d="M53.52 770.4L493.08 770.4L493.08 770.4L493.08 769.44L493.08 769.44L53.52 769.44z" stroke="none" fill="#000000" fill-rule="evenodd" /><path id="886" transform="matrix(1 0 0 -1 0 841)" d="M53.52 746.88L493.08 746.88L493.08 746.88L493.08 745.92L493.08 745.92L53.52 745.92z" stroke="none" fill="#000000" fill-rule="evenodd" /><path id="887" transform="matrix(1 0 0 -1 0 841)" d="M53.52 713.04L350.16 713.04L350.16 713.04L350.16 712.08L350.16 712.08L53.52 712.08z" stroke="none" fill="#000000" fill-rule="evenodd" /><path id="888" transform="matrix(1 0 0 -1 0 841)" d="M53.52 683.88L493.08 683.88L493.08 683.88L493.08 682.92L493.08 682.92L53.52 682.92z" stroke="none" fill="#000000" fill-rule="evenodd" /><path id="889" transform="matrix(1 0 0 -1 0 841)" d="M53.52 666L493.08 666L493.08 666L493.08 665.04L493.08 665.04L53.52 665.04z" stroke="none" fill="#000000" fill-rule="evenodd" /><path id="890" transform="matrix(1 0 0 -1 0 841)" d="M53.52 636L493.08 636L493.08 636L493.08 635.04L493.08 635.04L53.52 635.04z" stroke="none" fill="#000000" fill-rule="evenodd" /><path id="891" transform="matrix(1 0 0 -1 0 841)" d="M53.52 618.12L493.08 618.12L493.08 618.12L493.08 617.16L493.08 617.16L53.52 617.16z" stroke="none" fill="#000000" fill-rule="evenodd" /><path id="892" transform="matrix(1 0 0 -1 0 841)" d="M133.92 600.24L493.08 600.24L493.08 600.24L493.08 599.28L493.08 599.28L133.92 599.28z" stroke="none" fill="#000000" fill-rule="evenodd" /><path id="893" transform="matrix(1 0 0 -1 0 841)" d="M133.92 582.36L493.08 582.36L493.08 582.36L493.08 581.4L493.08 581.4L133.92 581.4z" stroke="none" fill="#000000" fill-rule="evenodd" /><path id="894" transform="matrix(1 0 0 -1 0 841)" d="M133.92 564.48L493.08 564.48L493.08 564.48L493.08 563.52L493.08 563.52L133.92 563.52z" stroke="none" fill="#000000" fill-rule="evenodd" /><path id="895" transform="matrix(1 0 0 -1 0 841)" d="M133.92 546.6L493.08 546.6L493.08 546.6L493.08 545.64L493.08 545.64L133.92 545.64z" stroke="none" fill="#000000" fill-rule="evenodd" /><path id="896" transform="matrix(1 0 0 -1 0 841)" d="M133.92 528.72L493.08 528.72L493.08 528.72L493.08 527.76L493.08 527.76L133.92 527.76z" stroke="none" fill="#000000" fill-rule="evenodd" /><path id="897" transform="matrix(1 0 0 -1 0 841)" d="M133.92 510.84L493.08 510.84L493.08 510.84L493.08 509.88L493.08 509.88L133.92 509.88z" stroke="none" fill="#000000" fill-rule="evenodd" /><path id="898" transform="matrix(1 0 0 -1 0 841)" d="M53.52 492.96L493.08 492.96L493.08 492.96L493.08 492L493.08 492L53.52 492z" stroke="none" fill="#000000" fill-rule="evenodd" /><path id="899" transform="matrix(1 0 0 -1 0 841)" d="M53.52 475.08L493.08 475.08L493.08 475.08L493.08 474.12L493.08 474.12L53.52 474.12z" stroke="none" fill="#000000" fill-rule="evenodd" /><path id="900" transform="matrix(1 0 0 -1 0 841)" d="M133.92 457.2L493.08 457.2L493.08 457.2L493.08 456.24L493.08 456.24L133.92 456.24z" stroke="none" fill="#000000" fill-rule="evenodd" /><path id="901" transform="matrix(1 0 0 -1 0 841)" d="M133.92 439.32L493.08 439.32L493.08 439.32L493.08 438.36L493.08 438.36L133.92 438.36z" stroke="none" fill="#000000" fill-rule="evenodd" /><path id="902" transform="matrix(1 0 0 -1 0 841)" d="M133.92 421.44L493.08 421.44L493.08 421.44L493.08 420.48L493.08 420.48L133.92 420.48z" stroke="none" fill="#000000" fill-rule="evenodd" /><path id="903" transform="matrix(1 0 0 -1 0 841)" d="M133.92 403.56L493.08 403.56L493.08 403.56L493.08 402.6L493.08 402.6L133.92 402.6z" stroke="none" fill="#000000" fill-rule="evenodd" /><path id="904" transform="matrix(1 0 0 -1 0 841)" d="M133.92 385.68L493.08 385.68L493.08 385.68L493.08 384.72L493.08 384.72L133.92 384.72z" stroke="none" fill="#000000" fill-rule="evenodd" /><path id="905" transform="matrix(1 0 0 -1 0 841)" d="M133.92 367.8L493.08 367.8L493.08 367.8L493.08 366.84L493.08 366.84L133.92 366.84z" stroke="none" fill="#000000" fill-rule="evenodd" /><path id="906" transform="matrix(1 0 0 -1 0 841)" d="M53.52 349.92L493.08 349.92L493.08 349.92L493.08 348.96L493.08 348.96L53.52 348.96z" stroke="none" fill="#000000" fill-rule="evenodd" /><path id="907" transform="matrix(1 0 0 -1 0 841)" d="M53.52 770.4L54.48 770.4L54.48 770.4L54.48 348.96L54.48 348.96L53.52 348.96z" stroke="none" fill="#000000" fill-rule="evenodd" /><path id="908" transform="matrix(1 0 0 -1 0 841)" d="M133.92 746.88L134.88 746.88L134.88 746.88L134.88 348.96L134.88 348.96L133.92 348.96z" stroke="none" fill="#000000" fill-rule="evenodd" /><path id="909" transform="matrix(1 0 0 -1 0 841)" d="M349.2 746.88L350.16 746.88L350.16 746.88L350.16 348.96L350.16 348.96L349.2 348.96z" stroke="none" fill="#000000" fill-rule="evenodd" /><path id="910" transform="matrix(1 0 0 -1 0 841)" d="M492.12 770.4L493.08 770.4L493.08 770.4L493.08 348.96L493.08 348.96L492.12 348.96z" stroke="none" fill="#000000" fill-rule="evenodd" /></g></g></g></g></svg>