<svg version="1.1" id="svg2" width="332" height="78" viewBox="33.31 154.57 332 78" sodipodi:docname="73a59ce4760df0197c4bfcec1854b48e.ai" xmlns:inkscape="http://www.inkscape.org/namespaces/inkscape" xmlns:sodipodi="http://sodipodi.sourceforge.net/DTD/sodipodi-0.dtd" xmlns="http://www.w3.org/2000/svg" xmlns:svg="http://www.w3.org/2000/svg" xmlns:xlink="http://www.w3.org/1999/xlink" xmlns:svgjs="http://svgjs.dev/svgjs">
  <defs id="defs6">
    <linearGradient x1="0" y1="0" x2="1" y2="0" gradientUnits="userSpaceOnUse" gradientTransform="matrix(687.34644,-2.5657895,-2.5657895,-687.34644,42.341286,810.33844)" spreadMethod="pad" id="linearGradient30">
      <stop style="stop-opacity:1;stop-color:#0b3190" offset="0" id="stop22"/>
      <stop style="stop-opacity:1;stop-color:#0b3190" offset="0.0003862" id="stop24"/>
      <stop style="stop-opacity:1;stop-color:#0b3190" offset="0.69178829" id="stop26"/>
      <stop style="stop-opacity:1;stop-color:#046eb8" offset="1" id="stop28"/>
    </linearGradient>
    <clipPath clipPathUnits="userSpaceOnUse" id="clipPath68">
      <path d="M 0,841.89 H 595.276 V 0 H 0 Z" id="path66"/>
    </clipPath>
    <linearGradient x1="0" y1="0" x2="1" y2="0" gradientUnits="userSpaceOnUse" gradientTransform="matrix(687.94287,-2.5680158,-2.5680158,-687.94287,42.120789,640.07178)" spreadMethod="pad" id="linearGradient216">
      <stop style="stop-opacity:1;stop-color:#0b3190" offset="0" id="stop208"/>
      <stop style="stop-opacity:1;stop-color:#0b3190" offset="0.0003862" id="stop210"/>
      <stop style="stop-opacity:1;stop-color:#0b3190" offset="0.69178829" id="stop212"/>
      <stop style="stop-opacity:1;stop-color:#046eb8" offset="1" id="stop214"/>
    </linearGradient>
    <clipPath clipPathUnits="userSpaceOnUse" id="clipPath226">
      <path d="M 0,841.89 H 595.276 V 0 H 0 Z" id="path224"/>
    </clipPath>
  </defs>
  <sodipodi:namedview id="namedview4" pagecolor="#ffffff" bordercolor="#000000" borderopacity="0.25" inkscape:showpageshadow="2" inkscape:pageopacity="0.0" inkscape:pagecheckerboard="0" inkscape:deskcolor="#d1d1d1"/>
  <g id="g8" inkscape:groupmode="layer" inkscape:label="73a59ce4760df0197c4bfcec1854b48e" transform="matrix(1.3333333,0,0,-1.3333333,0,1122.52)">
    <g id="g10">
      <g id="g12">
        <g id="g18">
          <g id="g20">
            <path d="m 0,776.89 h 595.275 v 65 H 0 Z" style="fill:url(#linearGradient30);stroke:none" id="path32"/>
          </g>
        </g>
      </g>
    </g>
    <text xml:space="preserve" transform="matrix(0.99000126,0,0,-1,181.5713,805.6875)" style="font-variant:normal;font-weight:500;font-stretch:normal;font-size:10.3413px;font-family:'Source Han Sans CN Medium';-inkscape-font-specification:SourceHanSansCN-Medium;writing-mode:lr-tb;fill:#ffffff;fill-opacity:1;fill-rule:nonzero;stroke:none" id="text40"><tspan x="0 7.2492514 13.195498 22.533693" y="0" sodipodi:role="line" id="tspan34">Home</tspan><tspan x="56.277355 62.554523 68.500771 74.55043 77.601112 83.040642 86.752129 92.191658 98.241318 102.91558" y="0.13443691" sodipodi:role="line" id="tspan36">Conference</tspan><tspan x="62.347698 68.635208 72.34877 78.295013 83.86898 87.404671 92.947601" y="12.543997" sodipodi:role="line" id="tspan38">Program</tspan></text>
    <g id="g42" transform="translate(296.7755,807.3472)">
      <path d="M 0,0 H -0.041 L -3.993,4.529 -3.246,4.76 -0.041,1.064 H 0 L 3.204,4.76 3.952,4.529 Z" style="fill:#ffffff;fill-opacity:1;fill-rule:nonzero;stroke:none" id="path44"/>
    </g>
    <g id="g46" transform="translate(546.5533,806.6148)">
      <path d="M 0,0 H -0.041 L -3.993,4.529 -3.246,4.76 -0.041,1.064 H 0 L 3.204,4.76 3.952,4.529 Z" style="fill:#ffffff;fill-opacity:1;fill-rule:nonzero;stroke:none" id="path48"/>
    </g>
    <g id="g50" transform="translate(395.2746,807.3472)">
      <path d="M 0,0 H -0.041 L -3.993,4.529 -3.246,4.76 -0.041,1.064 H 0 L 3.204,4.76 3.952,4.529 Z" style="fill:#ffffff;fill-opacity:1;fill-rule:nonzero;stroke:none" id="path52"/>
    </g>
    <text xml:space="preserve" transform="matrix(0.99000126,0,0,-1,340.7148,805.5527)" style="font-variant:normal;font-weight:500;font-stretch:normal;font-size:10.3413px;font-family:'Source Han Sans CN Medium';-inkscape-font-specification:SourceHanSansCN-Medium;writing-mode:lr-tb;fill:#ffffff;fill-opacity:1;fill-rule:nonzero;stroke:none" id="text60"><tspan x="0 6.2771692 11.820106 14.498503 17.176899 19.100382 22.151064 28.097313" y="0" sodipodi:role="line" id="tspan54">Call for</tspan><tspan x="-15.677411 -9.4002419 -3.4539943 2.5956664 6.2875104 10.113791 12.678433 18.7798 24.788095 28.47994 31.044582 36.990829 43.040489" y="12.40956" sodipodi:role="line" id="tspan56">Contributions</tspan><tspan x="72.378761 79.772789 83.486351 88.862793 94.405731 100.45539 103.02003 107.44611 112.81221 116.50405 119.0687 125.01494 155.85373 161.70691 165.17021 168.68625 174.12578 180.17543 186.28714 188.85179 194.90144" y="-0.13443691" sodipodi:role="line" id="tspan58">OrganizationAttending</tspan></text>
    <g id="g62">
      <g id="g64" clip-path="url(#clipPath68)">
        <g id="g70" transform="translate(102.84,801.282)">
          <path d="M 0,0 C 0.386,0.437 0.671,0.806 0.852,1.107 1.034,1.409 1.125,1.656 1.125,1.85 1.125,2.015 1.079,2.144 0.987,2.236 0.895,2.328 0.769,2.374 0.608,2.374 0.451,2.374 0.297,2.318 0.145,2.208 -0.007,2.098 -0.135,1.948 -0.241,1.76 h -0.063 l -0.075,0.31 c 0.115,0.221 0.283,0.404 0.504,0.549 0.22,0.145 0.441,0.217 0.662,0.217 0.285,0 0.514,-0.076 0.687,-0.228 C 1.646,2.457 1.732,2.257 1.732,2.008 1.732,1.87 1.688,1.712 1.598,1.535 1.508,1.358 1.36,1.136 1.153,0.87 0.946,0.602 0.649,0.253 0.262,-0.18 L 0.29,-0.228 h 1.056 c 0.175,0 0.308,0.016 0.4,0.048 0.092,0.032 0.166,0.092 0.221,0.18 0.055,0.087 0.106,0.221 0.152,0.4 L 2.395,0.435 C 2.376,0.37 2.344,0.227 2.298,0.003 2.252,-0.22 2.218,-0.437 2.195,-0.649 L 2.112,-0.697 c -0.175,0.004 -0.526,0.014 -1.053,0.028 -0.526,0.013 -0.914,0.02 -1.163,0.02 l -0.372,-0.083 -0.069,0.124 z" style="fill:#d4b265;fill-opacity:1;fill-rule:nonzero;stroke:none" id="path72"/>
        </g>
        <g id="g74" transform="translate(108.0953,801.4027)">
          <path d="M 0,0 C 0.214,0.218 0.321,0.503 0.321,0.852 0.321,1.105 0.268,1.331 0.162,1.529 0.056,1.726 -0.09,1.88 -0.276,1.991 -0.463,2.101 -0.675,2.157 -0.915,2.157 -1.26,2.157 -1.537,2.047 -1.746,1.829 -1.955,1.61 -2.06,1.319 -2.06,0.956 c 0,-0.249 0.052,-0.471 0.155,-0.666 0.104,-0.196 0.247,-0.348 0.432,-0.456 0.184,-0.108 0.395,-0.162 0.634,-0.162 0.346,0 0.625,0.109 0.839,0.328 m -1.739,-0.639 c -0.223,0.143 -0.397,0.343 -0.521,0.601 -0.125,0.258 -0.186,0.554 -0.186,0.89 0,0.355 0.072,0.673 0.217,0.956 0.145,0.283 0.345,0.505 0.6,0.666 0.256,0.161 0.542,0.242 0.859,0.242 0.285,0 0.541,-0.07 0.767,-0.211 0.225,-0.14 0.4,-0.337 0.524,-0.59 C 0.645,1.662 0.707,1.372 0.707,1.046 0.707,0.687 0.635,0.362 0.49,0.073 0.345,-0.217 0.146,-0.444 -0.107,-0.607 -0.36,-0.771 -0.645,-0.852 -0.963,-0.852 c -0.295,0 -0.553,0.071 -0.776,0.213" style="fill:#d4b265;fill-opacity:1;fill-rule:nonzero;stroke:none" id="path76"/>
        </g>
        <g id="g78" transform="translate(109.7963,801.282)">
          <path d="M 0,0 C 0.386,0.437 0.671,0.806 0.852,1.107 1.034,1.409 1.125,1.656 1.125,1.85 1.125,2.015 1.079,2.144 0.987,2.236 0.895,2.328 0.769,2.374 0.608,2.374 0.451,2.374 0.297,2.318 0.145,2.208 -0.007,2.098 -0.135,1.948 -0.241,1.76 h -0.063 l -0.075,0.31 c 0.115,0.221 0.283,0.404 0.504,0.549 0.22,0.145 0.441,0.217 0.662,0.217 0.285,0 0.514,-0.076 0.687,-0.228 C 1.646,2.457 1.732,2.257 1.732,2.008 1.732,1.87 1.688,1.712 1.598,1.535 1.508,1.358 1.36,1.136 1.153,0.87 0.946,0.602 0.649,0.253 0.262,-0.18 L 0.29,-0.228 h 1.056 c 0.175,0 0.308,0.016 0.4,0.048 0.092,0.032 0.166,0.092 0.221,0.18 0.055,0.087 0.106,0.221 0.152,0.4 L 2.395,0.435 C 2.376,0.37 2.344,0.227 2.298,0.003 2.252,-0.22 2.218,-0.437 2.195,-0.649 L 2.112,-0.697 c -0.175,0.004 -0.526,0.014 -1.053,0.028 -0.526,0.013 -0.914,0.02 -1.163,0.02 l -0.372,-0.083 -0.069,0.124 z" style="fill:#d4b265;fill-opacity:1;fill-rule:nonzero;stroke:none" id="path80"/>
        </g>
        <g id="g82" transform="translate(112.5704,800.0156)">
          <path d="m 0,0 c -0.069,0.071 -0.108,0.204 -0.117,0.397 l 0.034,0.041 C 0.11,0.397 0.297,0.376 0.476,0.376 c 0.24,0 0.457,0.039 0.653,0.117 C 1.324,0.571 1.478,0.68 1.591,0.818 1.703,0.955 1.76,1.114 1.76,1.294 1.76,1.445 1.715,1.574 1.625,1.68 1.536,1.786 1.386,1.877 1.177,1.953 0.967,2.029 0.681,2.099 0.318,2.164 L 0.256,2.24 c 0.027,0.34 0.053,0.68 0.076,1.021 0.023,0.34 0.036,0.561 0.041,0.662 L 0.428,3.978 1.732,4.034 C 1.871,4.043 1.968,4.065 2.026,4.099 2.083,4.134 2.13,4.201 2.167,4.303 L 2.395,4.33 2.229,3.516 2.188,3.474 C 2.105,3.479 1.916,3.49 1.622,3.506 1.328,3.522 1.012,3.53 0.676,3.53 L 0.628,2.66 C 1.157,2.536 1.566,2.388 1.853,2.215 2.14,2.043 2.285,1.804 2.285,1.501 2.285,1.234 2.181,0.977 1.974,0.728 1.767,0.48 1.508,0.278 1.198,0.124 0.887,-0.03 0.593,-0.107 0.318,-0.107 0.175,-0.107 0.069,-0.072 0,0" style="fill:#d4b265;fill-opacity:1;fill-rule:nonzero;stroke:none" id="path84"/>
        </g>
        <g id="g86" transform="translate(120.7092,801.7367)">
          <path d="m 0,0 c 0,-0.375 -0.112,-0.674 -0.335,-0.896 -0.222,-0.221 -0.523,-0.332 -0.903,-0.332 -0.168,0 -0.369,0.03 -0.604,0.091 -0.213,0.056 -0.388,0.084 -0.524,0.084 -0.011,0.321 -0.034,0.642 -0.068,0.962 0,0.031 0.029,0.046 0.085,0.046 0.04,0 0.064,-0.015 0.074,-0.046 0.102,-0.35 0.232,-0.598 0.391,-0.741 0.159,-0.143 0.381,-0.215 0.668,-0.215 0.228,0 0.404,0.066 0.53,0.198 0.125,0.132 0.188,0.317 0.188,0.555 0,0.153 -0.055,0.294 -0.164,0.425 -0.11,0.132 -0.342,0.301 -0.699,0.509 -0.41,0.235 -0.677,0.435 -0.804,0.599 -0.126,0.165 -0.189,0.347 -0.189,0.547 0,0.307 0.114,0.567 0.341,0.779 0.228,0.213 0.516,0.318 0.866,0.318 0.132,0 0.284,-0.018 0.456,-0.053 0.16,-0.032 0.299,-0.049 0.416,-0.049 0.023,-0.332 0.053,-0.624 0.091,-0.877 0,-0.03 -0.024,-0.045 -0.074,-0.045 -0.052,0 -0.082,0.015 -0.087,0.045 C -0.408,2.188 -0.502,2.391 -0.629,2.516 -0.755,2.64 -0.93,2.703 -1.154,2.703 -1.366,2.703 -1.535,2.64 -1.66,2.516 -1.785,2.391 -1.848,2.223 -1.848,2.012 -1.848,1.878 -1.796,1.75 -1.69,1.628 -1.585,1.507 -1.358,1.344 -1.008,1.14 -0.593,0.899 -0.322,0.697 -0.193,0.535 -0.064,0.373 0,0.194 0,0" style="fill:#d4b265;fill-opacity:1;fill-rule:nonzero;stroke:none" id="path88"/>
        </g>
        <g id="g90" transform="translate(124.0282,800.6783)">
          <path d="m 0,0 c 0,-0.052 -0.015,-0.079 -0.045,-0.079 -0.076,0 -0.169,0.005 -0.28,0.017 -0.121,0.011 -0.227,0.017 -0.318,0.017 -0.095,0 -0.204,-0.006 -0.327,-0.017 -0.112,-0.012 -0.206,-0.017 -0.281,-0.017 -0.031,0 -0.046,0.027 -0.046,0.079 0,0.047 0.015,0.073 0.045,0.076 0.131,0.016 0.217,0.052 0.257,0.111 0.041,0.058 0.061,0.181 0.061,0.368 V 1.5 c 0,0.407 -0.185,0.611 -0.556,0.611 -0.234,0 -0.437,-0.094 -0.607,-0.283 V 0.555 c 0,-0.17 0.025,-0.288 0.074,-0.354 0.049,-0.066 0.145,-0.107 0.289,-0.125 0.031,-0.003 0.046,-0.029 0.046,-0.076 0,-0.052 -0.015,-0.079 -0.045,-0.079 -0.078,0 -0.178,0.005 -0.302,0.017 -0.14,0.011 -0.256,0.017 -0.348,0.017 -0.094,0 -0.202,-0.006 -0.322,-0.017 -0.108,-0.012 -0.2,-0.017 -0.278,-0.017 -0.029,0 -0.045,0.027 -0.045,0.079 0,0.047 0.016,0.073 0.045,0.076 0.159,0.018 0.262,0.055 0.309,0.112 0.047,0.058 0.071,0.18 0.071,0.366 v 2.627 c 0,0.153 -0.019,0.253 -0.055,0.3 -0.037,0.047 -0.122,0.078 -0.256,0.093 -0.031,0.004 -0.046,0.028 -0.046,0.072 0,0.05 0.015,0.075 0.045,0.075 0.322,0.076 0.56,0.176 0.714,0.3 0.028,0.023 0.052,0.034 0.07,0.034 0.053,0 0.079,-0.015 0.079,-0.045 C -2.082,3.701 -2.097,3.372 -2.097,3.025 V 2.066 c 0.271,0.256 0.538,0.385 0.801,0.385 0.268,0 0.48,-0.074 0.634,-0.221 C -0.507,2.083 -0.43,1.885 -0.43,1.636 V 0.555 C -0.43,0.37 -0.406,0.249 -0.358,0.191 -0.31,0.133 -0.206,0.095 -0.045,0.076 -0.015,0.073 0,0.047 0,0" style="fill:#d4b265;fill-opacity:1;fill-rule:nonzero;stroke:none" id="path92"/>
        </g>
        <g id="g94" transform="translate(125.972,802.4553)">
          <path d="M 0,0 C 0,0.142 -0.049,0.259 -0.146,0.353 -0.243,0.446 -0.368,0.492 -0.52,0.492 -0.666,0.492 -0.792,0.432 -0.899,0.31 -1.005,0.188 -1.077,0.028 -1.115,-0.17 l 0.787,0.023 c 0.119,0.002 0.203,0.013 0.253,0.034 C -0.025,-0.092 0,-0.054 0,0 m 0.515,-0.249 c 0,-0.053 -0.034,-0.079 -0.102,-0.079 h -1.55 c -0.012,-0.102 -0.018,-0.208 -0.018,-0.317 0,-0.304 0.073,-0.537 0.217,-0.7 0.144,-0.164 0.349,-0.245 0.615,-0.245 0.135,0 0.27,0.036 0.405,0.107 0.136,0.072 0.245,0.164 0.329,0.275 l 0.014,0.005 c 0.016,0 0.033,-0.01 0.049,-0.031 0.016,-0.02 0.024,-0.045 0.024,-0.073 0,-0.04 -0.061,-0.122 -0.181,-0.248 -0.121,-0.125 -0.252,-0.221 -0.394,-0.287 -0.141,-0.066 -0.289,-0.099 -0.443,-0.099 -0.34,0 -0.626,0.125 -0.858,0.373 -0.232,0.25 -0.348,0.555 -0.348,0.918 0,0.369 0.114,0.682 0.341,0.939 0.227,0.256 0.515,0.385 0.865,0.385 0.292,0 0.538,-0.096 0.737,-0.288 0.198,-0.191 0.298,-0.403 0.298,-0.635" style="fill:#d4b265;fill-opacity:1;fill-rule:nonzero;stroke:none" id="path96"/>
        </g>
        <g id="g98" transform="translate(129.7638,800.6783)">
          <path d="m 0,0 c 0,-0.052 -0.015,-0.079 -0.045,-0.079 -0.076,0 -0.168,0.005 -0.278,0.017 -0.12,0.011 -0.226,0.017 -0.319,0.017 -0.094,0 -0.202,-0.006 -0.324,-0.017 -0.111,-0.012 -0.204,-0.017 -0.279,-0.017 -0.03,0 -0.045,0.027 -0.045,0.079 0,0.047 0.015,0.073 0.045,0.076 0.13,0.016 0.216,0.052 0.256,0.111 0.04,0.058 0.061,0.181 0.061,0.368 V 1.5 c 0,0.211 -0.042,0.366 -0.125,0.464 -0.082,0.098 -0.211,0.147 -0.385,0.147 -0.109,0 -0.206,-0.021 -0.289,-0.062 C -1.811,2.008 -1.902,1.934 -1.998,1.828 V 0.555 c 0,-0.187 0.02,-0.31 0.061,-0.368 0.041,-0.059 0.126,-0.095 0.256,-0.111 0.03,-0.003 0.045,-0.029 0.045,-0.076 0,-0.052 -0.015,-0.079 -0.045,-0.079 -0.077,0 -0.172,0.005 -0.283,0.017 -0.122,0.011 -0.23,0.017 -0.323,0.017 -0.09,0 -0.196,-0.006 -0.316,-0.017 -0.112,-0.012 -0.206,-0.017 -0.283,-0.017 -0.03,0 -0.046,0.027 -0.046,0.079 0,0.047 0.016,0.073 0.046,0.076 0.162,0.021 0.266,0.06 0.314,0.118 0.047,0.057 0.071,0.177 0.071,0.36 v 1.045 c 0,0.151 -0.02,0.25 -0.058,0.297 -0.039,0.047 -0.125,0.078 -0.259,0.093 -0.031,0 -0.046,0.025 -0.046,0.075 0,0.046 0.015,0.07 0.046,0.07 0.186,0.047 0.342,0.1 0.467,0.159 0.124,0.06 0.202,0.109 0.235,0.147 0.018,0.022 0.039,0.033 0.061,0.033 0.053,0 0.08,-0.015 0.08,-0.045 L -1.998,2.071 c 0.272,0.253 0.524,0.38 0.757,0.38 0.256,0 0.456,-0.074 0.6,-0.221 0.145,-0.147 0.217,-0.345 0.217,-0.594 V 0.555 c 0,-0.185 0.023,-0.306 0.069,-0.362 0.046,-0.057 0.149,-0.096 0.31,-0.117 C -0.015,0.073 0,0.047 0,0" style="fill:#d4b265;fill-opacity:1;fill-rule:nonzero;stroke:none" id="path100"/>
        </g>
        <g id="g102" transform="translate(134.2118,804.4573)">
          <path d="M 0,0 C 0,-0.02 -0.006,-0.038 -0.02,-0.054 -0.033,-0.07 -0.047,-0.078 -0.062,-0.078 -0.249,-0.099 -0.39,-0.137 -0.485,-0.194 -0.58,-0.251 -0.693,-0.375 -0.823,-0.565 l -1.058,-1.522 v -1.137 c 0,-0.128 0.01,-0.219 0.032,-0.272 0.022,-0.053 0.072,-0.096 0.15,-0.129 0.078,-0.033 0.198,-0.059 0.358,-0.078 0.03,-0.003 0.045,-0.029 0.045,-0.076 0,-0.053 -0.015,-0.079 -0.045,-0.079 -0.126,0 -0.269,0.005 -0.428,0.017 -0.153,0.011 -0.287,0.017 -0.403,0.017 -0.114,0 -0.253,-0.006 -0.42,-0.017 -0.175,-0.012 -0.326,-0.017 -0.453,-0.017 -0.03,0 -0.045,0.026 -0.045,0.079 0,0.047 0.015,0.073 0.045,0.076 0.229,0.027 0.384,0.069 0.466,0.128 0.082,0.058 0.123,0.175 0.123,0.351 v 1.126 l -0.979,1.536 c -0.134,0.19 -0.252,0.313 -0.354,0.371 -0.102,0.057 -0.239,0.094 -0.41,0.113 -0.03,0 -0.046,0.026 -0.046,0.078 0,0.052 0.016,0.078 0.046,0.078 0.088,0 0.209,-0.006 0.362,-0.017 0.165,-0.011 0.299,-0.017 0.401,-0.017 0.096,0 0.228,0.006 0.398,0.017 0.198,0.011 0.363,0.017 0.495,0.017 0.03,0 0.045,-0.026 0.045,-0.078 0,-0.052 -0.015,-0.078 -0.045,-0.078 -0.245,-0.034 -0.368,-0.099 -0.368,-0.194 0,-0.076 0.039,-0.174 0.116,-0.293 l 0.819,-1.276 0.855,1.28 c 0.061,0.089 0.091,0.167 0.091,0.233 0,0.072 -0.034,0.126 -0.101,0.164 -0.067,0.036 -0.181,0.065 -0.341,0.086 -0.022,0 -0.034,0.026 -0.034,0.078 0,0.052 0.015,0.078 0.045,0.078 0.112,0 0.248,-0.006 0.408,-0.017 0.156,-0.011 0.287,-0.017 0.391,-0.017 0.096,0 0.198,0.006 0.305,0.017 0.11,0.011 0.214,0.017 0.312,0.017 C -0.015,0.078 0,0.052 0,0" style="fill:#d4b265;fill-opacity:1;fill-rule:nonzero;stroke:none" id="path104"/>
        </g>
        <g id="g106" transform="translate(134.7386,801.8132)">
          <path d="m 0,0 c -0.549,-0.125 -0.824,-0.331 -0.824,-0.618 0,-0.269 0.104,-0.404 0.31,-0.404 0.1,0 0.199,0.025 0.295,0.075 0.097,0.051 0.163,0.113 0.196,0.186 z m 0.433,-1.276 c -0.105,0 -0.196,0.026 -0.274,0.077 -0.078,0.052 -0.131,0.122 -0.159,0.211 -0.202,-0.207 -0.466,-0.311 -0.793,-0.311 -0.169,0 -0.308,0.052 -0.416,0.157 -0.107,0.105 -0.161,0.236 -0.161,0.392 0,0.387 0.459,0.7 1.375,0.939 l 0.018,0.442 v 0.014 c 0,0.136 -0.034,0.244 -0.101,0.324 -0.067,0.08 -0.156,0.12 -0.267,0.12 -0.112,0 -0.206,-0.027 -0.283,-0.08 C -0.706,0.955 -0.745,0.887 -0.747,0.806 -0.749,0.686 -0.781,0.591 -0.842,0.523 -0.903,0.456 -0.985,0.421 -1.087,0.421 c -0.06,0 -0.109,0.018 -0.147,0.054 -0.038,0.036 -0.056,0.084 -0.056,0.144 0,0.146 0.132,0.298 0.396,0.458 0.264,0.159 0.509,0.239 0.736,0.239 0.203,0 0.368,-0.061 0.494,-0.182 0.127,-0.12 0.19,-0.283 0.19,-0.486 V 0.614 L 0.484,-0.665 v -0.02 c 0,-0.198 0.064,-0.297 0.192,-0.297 0.063,0 0.135,0.038 0.218,0.113 l 0.02,0.006 c 0.015,0 0.029,-0.01 0.042,-0.03 0.014,-0.02 0.02,-0.041 0.02,-0.063 0,-0.055 -0.057,-0.122 -0.171,-0.202 C 0.691,-1.237 0.567,-1.276 0.433,-1.276" style="fill:#d4b265;fill-opacity:1;fill-rule:nonzero;stroke:none" id="path108"/>
        </g>
        <g id="g110" transform="translate(138.7453,800.6783)">
          <path d="m 0,0 c 0,-0.052 -0.015,-0.079 -0.045,-0.079 -0.076,0 -0.168,0.005 -0.278,0.017 -0.12,0.011 -0.226,0.017 -0.319,0.017 -0.094,0 -0.202,-0.006 -0.324,-0.017 -0.111,-0.012 -0.204,-0.017 -0.279,-0.017 -0.03,0 -0.045,0.027 -0.045,0.079 0,0.047 0.015,0.073 0.045,0.076 0.13,0.016 0.216,0.052 0.256,0.111 0.04,0.058 0.061,0.181 0.061,0.368 V 1.5 c 0,0.211 -0.042,0.366 -0.125,0.464 -0.082,0.098 -0.211,0.147 -0.385,0.147 -0.109,0 -0.206,-0.021 -0.289,-0.062 C -1.811,2.008 -1.902,1.934 -1.998,1.828 V 0.555 c 0,-0.187 0.02,-0.31 0.061,-0.368 0.041,-0.059 0.126,-0.095 0.256,-0.111 0.03,-0.003 0.045,-0.029 0.045,-0.076 0,-0.052 -0.015,-0.079 -0.045,-0.079 -0.077,0 -0.172,0.005 -0.283,0.017 -0.122,0.011 -0.23,0.017 -0.323,0.017 -0.09,0 -0.196,-0.006 -0.316,-0.017 -0.112,-0.012 -0.206,-0.017 -0.283,-0.017 -0.03,0 -0.046,0.027 -0.046,0.079 0,0.047 0.016,0.073 0.046,0.076 0.162,0.021 0.266,0.06 0.314,0.118 0.047,0.057 0.071,0.177 0.071,0.36 v 1.045 c 0,0.151 -0.02,0.25 -0.058,0.297 -0.039,0.047 -0.125,0.078 -0.259,0.093 -0.031,0 -0.046,0.025 -0.046,0.075 0,0.046 0.015,0.07 0.046,0.07 0.186,0.047 0.342,0.1 0.467,0.159 0.124,0.06 0.202,0.109 0.235,0.147 0.018,0.022 0.039,0.033 0.061,0.033 0.053,0 0.08,-0.015 0.08,-0.045 L -1.998,2.071 c 0.272,0.253 0.524,0.38 0.757,0.38 0.256,0 0.456,-0.074 0.6,-0.221 0.145,-0.147 0.217,-0.345 0.217,-0.594 V 0.555 c 0,-0.185 0.023,-0.306 0.069,-0.362 0.046,-0.057 0.149,-0.096 0.31,-0.117 C -0.015,0.073 0,0.047 0,0" style="fill:#d4b265;fill-opacity:1;fill-rule:nonzero;stroke:none" id="path112"/>
        </g>
        <g id="g114" transform="translate(140.5845,802.2463)">
          <path d="m 0,0 c 0,0.241 -0.037,0.418 -0.111,0.532 -0.075,0.113 -0.194,0.169 -0.357,0.169 -0.313,0 -0.469,-0.264 -0.469,-0.792 0,-0.24 0.037,-0.413 0.109,-0.522 0.072,-0.108 0.192,-0.162 0.36,-0.162 C -0.156,-0.775 0,-0.517 0,0 m 0.512,-2.255 c 0,0.13 -0.043,0.224 -0.128,0.28 -0.086,0.056 -0.23,0.087 -0.432,0.09 l -0.657,0.014 c -0.13,0 -0.245,0.019 -0.345,0.057 -0.23,-0.126 -0.345,-0.292 -0.345,-0.497 0,-0.186 0.078,-0.337 0.235,-0.453 0.156,-0.116 0.355,-0.173 0.597,-0.173 0.29,0 0.542,0.065 0.755,0.197 0.214,0.132 0.32,0.294 0.32,0.485 M 0.9,0.464 C 0.9,0.362 0.875,0.311 0.826,0.311 L 0.467,0.322 C 0.508,0.215 0.529,0.105 0.529,-0.006 0.529,-0.278 0.43,-0.504 0.232,-0.685 0.033,-0.866 -0.21,-0.957 -0.497,-0.957 H -0.61 c -0.151,0 -0.27,-0.02 -0.358,-0.059 -0.088,-0.039 -0.133,-0.086 -0.133,-0.139 0,-0.066 0.037,-0.12 0.11,-0.162 0.074,-0.043 0.176,-0.065 0.308,-0.067 l 0.655,-0.008 C 0.254,-1.398 0.473,-1.458 0.63,-1.57 0.787,-1.684 0.866,-1.841 0.866,-2.043 0.866,-2.349 0.7,-2.616 0.368,-2.844 0.037,-3.072 -0.356,-3.187 -0.81,-3.187 c -0.298,0 -0.549,0.073 -0.752,0.218 -0.204,0.145 -0.306,0.321 -0.306,0.528 0,0.14 0.065,0.276 0.194,0.409 0.13,0.132 0.282,0.23 0.457,0.292 -0.117,0.053 -0.212,0.128 -0.286,0.226 -0.073,0.097 -0.11,0.194 -0.11,0.29 0,0.068 0.069,0.142 0.208,0.219 0.139,0.078 0.282,0.13 0.431,0.156 -0.162,0.079 -0.288,0.185 -0.379,0.317 -0.09,0.132 -0.136,0.279 -0.136,0.441 0,0.261 0.101,0.488 0.302,0.682 0.2,0.194 0.439,0.292 0.716,0.292 0.147,0 0.291,-0.026 0.434,-0.077 C 0.105,0.755 0.222,0.687 0.315,0.6 L 0.826,0.617 C 0.875,0.617 0.9,0.566 0.9,0.464" style="fill:#d4b265;fill-opacity:1;fill-rule:nonzero;stroke:none" id="path116"/>
        </g>
        <path d="M 101.127,801.499 H 88.945 v 0.309 h 12.182 z" style="fill:#d4b265;fill-opacity:1;fill-rule:nonzero;stroke:none" id="path118"/>
        <path d="m 155.207,801.499 h -12.182 v 0.309 h 12.182 z" style="fill:#d4b265;fill-opacity:1;fill-rule:nonzero;stroke:none" id="path120"/>
        <g id="g122" transform="translate(89.3754,811.6157)">
          <path d="M 0,0 C 0.257,0 0.588,0.018 0.994,0.053 L 0.15,2.854 H 0.075 L -0.94,0 Z m 0.599,-2.95 0.043,0.417 c 0.363,0.028 0.612,0.071 0.747,0.128 0.136,0.057 0.204,0.15 0.204,0.278 0,0.143 -0.032,0.314 -0.097,0.513 l -0.352,1.165 c -0.171,0.007 -0.542,0.011 -1.112,0.011 -0.342,0 -0.73,-0.028 -1.165,-0.086 l -0.395,-1.111 c -0.065,-0.192 -0.096,-0.332 -0.096,-0.417 0,-0.157 0.049,-0.269 0.149,-0.337 0.1,-0.068 0.264,-0.101 0.492,-0.101 h 0.609 l 0.021,-0.043 -0.064,-0.46 c -0.085,0.008 -0.281,0.022 -0.587,0.043 -0.307,0.021 -0.606,0.032 -0.899,0.032 -0.263,0 -0.507,-0.003 -0.732,-0.011 -0.224,-0.006 -0.372,-0.014 -0.443,-0.021 l 0.085,0.503 c 0.2,0.021 0.36,0.09 0.481,0.208 0.121,0.118 0.239,0.322 0.353,0.615 l 2.084,5.461 0.674,0.182 H 0.684 C 0.727,3.848 0.835,3.452 1.01,2.832 1.184,2.213 1.398,1.479 1.651,0.631 1.904,-0.217 2.148,-0.998 2.384,-1.71 2.469,-1.974 2.583,-2.159 2.726,-2.266 2.868,-2.373 3.096,-2.441 3.41,-2.469 L 3.431,-2.512 3.356,-2.95 c -0.085,0 -0.24,0.006 -0.465,0.016 -0.224,0.011 -0.447,0.016 -0.668,0.016 -0.342,0 -0.672,-0.014 -0.988,-0.042 C 0.918,-2.989 0.716,-3.01 0.631,-3.025 Z" style="fill:#d4b265;fill-opacity:1;fill-rule:nonzero;stroke:none" id="path124"/>
        </g>
        <g id="g126" transform="translate(97.1194,812.2999)">
          <path d="m 0,0 c 0.217,0.278 0.326,0.659 0.326,1.144 0,0.548 -0.162,0.949 -0.486,1.202 -0.325,0.253 -0.832,0.38 -1.523,0.38 -0.129,0 -0.207,-0.008 -0.236,-0.022 C -1.947,2.69 -1.965,2.647 -1.972,2.576 -2.036,1.671 -2.079,0.691 -2.1,-0.363 l 1.133,-0.161 C -0.54,-0.453 -0.217,-0.278 0,0 m -3.672,-3.196 c 0.314,0.057 0.521,0.141 0.62,0.251 0.1,0.111 0.15,0.319 0.15,0.626 l 0.011,4.489 c 0,0.227 -0.027,0.381 -0.08,0.459 -0.054,0.078 -0.159,0.118 -0.316,0.118 -0.071,0 -0.142,-0.004 -0.213,-0.011 -0.072,-0.007 -0.122,-0.01 -0.15,-0.01 l -0.022,0.042 0.075,0.471 c 0.086,-0.008 0.246,-0.015 0.482,-0.022 0.234,-0.007 0.469,-0.01 0.705,-0.01 0.221,0 0.472,0.005 0.753,0.015 0.282,0.011 0.479,0.02 0.594,0.027 0.74,0 1.307,-0.164 1.699,-0.492 C 1.028,2.43 1.224,1.959 1.224,1.347 1.224,0.948 1.108,0.568 0.876,0.208 0.645,-0.152 0.34,-0.442 -0.037,-0.663 -0.415,-0.884 -0.811,-0.994 -1.224,-0.994 h -0.898 l -0.021,-1.047 c 0,-0.343 0.01,-0.587 0.032,-0.733 0.022,-0.146 0.062,-0.242 0.123,-0.288 0.06,-0.047 0.165,-0.07 0.315,-0.07 0.121,0 0.237,0.004 0.348,0.011 0.11,0.007 0.187,0.014 0.229,0.021 l 0.022,-0.042 -0.096,-0.492 c -0.072,0.007 -0.202,0.014 -0.391,0.021 -0.188,0.008 -0.386,0.011 -0.593,0.011 -0.285,0 -0.618,-0.011 -0.999,-0.032 -0.381,-0.021 -0.579,-0.039 -0.593,-0.053 z" style="fill:#d4b265;fill-opacity:1;fill-rule:nonzero;stroke:none" id="path128"/>
        </g>
        <g id="g130" transform="translate(104.2748,810.4828)">
          <path d="M 0,0 C -0.121,-0.577 -0.217,-1.176 -0.288,-1.796 L -0.342,-1.86 c -1.496,0.05 -2.576,0.075 -3.238,0.075 -0.528,0 -1.023,-0.036 -1.486,-0.107 l 0.064,0.492 c 0.32,0.043 0.54,0.126 0.657,0.251 0.118,0.125 0.177,0.34 0.177,0.647 l 0.01,4.489 c 0,0.228 -0.026,0.381 -0.08,0.46 -0.053,0.078 -0.159,0.117 -0.315,0.117 l -0.363,-0.021 -0.022,0.042 0.075,0.471 c 0.727,-0.022 1.222,-0.032 1.486,-0.032 0.848,0 1.507,0.009 1.977,0.026 0.47,0.018 0.88,0.052 1.229,0.102 L -0.139,5.088 C -0.267,4.525 -0.349,3.934 -0.385,3.314 L -0.898,3.271 -0.876,3.73 c 0,0.25 -0.032,0.422 -0.097,0.519 -0.063,0.096 -0.203,0.16 -0.416,0.192 -0.214,0.032 -0.588,0.048 -1.123,0.048 -0.249,0 -0.42,-0.007 -0.513,-0.021 C -3.117,4.453 -3.178,4.42 -3.206,4.366 -3.235,4.313 -3.253,4.215 -3.26,4.072 L -3.345,1.999 -2.244,1.988 c 0.278,0 0.712,0.039 1.304,0.118 l 0.042,-0.054 -0.149,-0.63 c -0.791,0.021 -1.29,0.032 -1.497,0.032 -0.235,0 -0.509,-0.025 -0.823,-0.075 l -0.042,-2.042 c 0,-0.206 0.017,-0.351 0.053,-0.432 0.036,-0.083 0.109,-0.138 0.219,-0.166 0.11,-0.028 0.301,-0.043 0.572,-0.043 0.599,0 1.024,0.029 1.277,0.086 0.253,0.057 0.433,0.171 0.54,0.342 0.107,0.171 0.189,0.463 0.246,0.876 l 0.47,0.053 z" style="fill:#d4b265;fill-opacity:1;fill-rule:nonzero;stroke:none" id="path132"/>
        </g>
        <g id="g134" transform="translate(106.8989,810.8678)">
          <path d="M 0,0 C -0.36,1.211 -0.725,2.397 -1.095,3.559 -1.159,3.766 -1.27,3.917 -1.427,4.013 -1.584,4.11 -1.794,4.161 -2.058,4.168 l -0.01,0.043 0.064,0.46 c 0.093,0 0.26,-0.006 0.502,-0.016 0.242,-0.011 0.478,-0.016 0.706,-0.016 0.313,0 0.627,0.016 0.94,0.048 0.314,0.032 0.517,0.055 0.61,0.069 L 0.786,4.682 0.743,4.265 C 0.38,4.236 0.135,4.193 0.011,4.136 -0.114,4.079 -0.176,3.976 -0.176,3.826 -0.176,3.705 -0.078,3.276 0.118,2.538 0.313,1.801 0.516,1.061 0.727,0.321 0.937,-0.421 1.074,-0.905 1.138,-1.133 H 1.203 L 2.709,2.971 2.517,3.559 C 2.446,3.766 2.336,3.915 2.186,4.008 2.036,4.1 1.826,4.154 1.555,4.168 l -0.021,0.043 0.075,0.46 c 0.092,0 0.26,-0.006 0.502,-0.016 0.242,-0.011 0.477,-0.016 0.705,-0.016 0.271,0 0.572,0.016 0.904,0.048 0.331,0.032 0.547,0.055 0.646,0.069 L 4.399,4.682 4.355,4.265 C 3.985,4.236 3.737,4.193 3.613,4.136 3.488,4.079 3.426,3.972 3.426,3.816 3.426,3.666 3.611,2.925 3.982,1.593 4.352,0.26 4.608,-0.648 4.751,-1.133 h 0.064 c 0.014,0.043 0.03,0.087 0.048,0.133 0.018,0.047 0.038,0.102 0.059,0.166 1.083,2.907 1.625,4.464 1.625,4.671 0,0.135 -0.058,0.231 -0.171,0.288 C 6.262,4.183 6.076,4.211 5.82,4.211 H 5.285 L 5.264,4.254 5.339,4.713 C 5.431,4.706 5.631,4.692 5.938,4.671 6.244,4.649 6.539,4.639 6.824,4.639 c 0.257,0 0.492,0.003 0.706,0.01 0.214,0.007 0.356,0.014 0.427,0.022 L 7.883,4.168 C 7.669,4.154 7.519,4.117 7.434,4.056 7.348,3.995 7.27,3.862 7.199,3.655 L 4.954,-2.116 4.292,-2.351 C 4.22,-2.102 4.055,-1.528 3.794,-0.631 3.534,0.267 3.255,1.204 2.956,2.18 H 2.891 L 1.373,-2.116 0.69,-2.351 C 0.59,-1.995 0.36,-1.211 0,0" style="fill:#d4b265;fill-opacity:1;fill-rule:nonzero;stroke:none" id="path136"/>
        </g>
        <g id="g138" transform="translate(117.7476,812.4069)">
          <path d="m 0,0 c 0.253,-0.022 0.461,-0.036 0.625,-0.043 0,-0.021 0.093,0.016 0.278,0.112 C 1.088,0.166 1.256,0.315 1.406,0.518 1.555,0.721 1.63,0.994 1.63,1.336 1.63,1.792 1.477,2.131 1.17,2.351 0.864,2.572 0.39,2.683 -0.251,2.683 -0.323,2.683 -0.371,2.667 -0.395,2.635 -0.42,2.602 -0.437,2.537 -0.443,2.437 -0.487,1.753 -0.518,0.954 -0.54,0.043 -0.433,0.035 -0.253,0.021 0,0 m -0.604,-2.522 c 0,-0.271 0.092,-0.464 0.278,-0.578 0.185,-0.114 0.499,-0.171 0.941,-0.171 0.427,0 0.764,0.12 1.009,0.359 0.247,0.238 0.369,0.561 0.369,0.967 0,0.384 -0.121,0.7 -0.363,0.945 -0.242,0.246 -0.602,0.412 -1.08,0.498 l -1.111,-0.022 z m -1.154,-1.24 c -0.257,-0.036 -0.424,-0.061 -0.503,-0.075 l 0.065,0.492 c 0.327,0.064 0.548,0.158 0.662,0.282 0.114,0.125 0.171,0.337 0.171,0.637 l 0.011,4.489 c 0,0.228 -0.027,0.381 -0.08,0.46 C -1.486,2.6 -1.591,2.64 -1.748,2.64 -1.819,2.64 -1.89,2.636 -1.961,2.629 -2.033,2.622 -2.083,2.619 -2.111,2.619 l -0.022,0.042 0.075,0.471 C -1.972,3.124 -1.812,3.117 -1.576,3.11 -1.341,3.103 -1.107,3.1 -0.871,3.1 c 0.242,0 0.49,0.005 0.742,0.015 0.254,0.011 0.426,0.02 0.519,0.027 0.677,0 1.197,-0.14 1.561,-0.422 C 2.314,2.439 2.496,2.038 2.496,1.518 2.496,1.161 2.387,0.841 2.17,0.556 1.952,0.271 1.647,0.043 1.256,-0.128 1.776,-0.242 2.182,-0.442 2.474,-0.727 2.766,-1.012 2.912,-1.354 2.912,-1.753 2.912,-2.116 2.797,-2.457 2.565,-2.774 2.334,-3.091 2.026,-3.344 1.641,-3.532 1.256,-3.721 0.843,-3.816 0.401,-3.816 c -0.193,0 -0.414,0.018 -0.663,0.054 -0.406,0.035 -0.666,0.053 -0.78,0.053 -0.221,0 -0.46,-0.018 -0.716,-0.053" style="fill:#d4b265;fill-opacity:1;fill-rule:nonzero;stroke:none" id="path140"/>
        </g>
        <g id="g142" transform="translate(131.7058,810.8678)">
          <path d="M 0,0 C -0.36,1.211 -0.725,2.397 -1.095,3.559 -1.159,3.766 -1.27,3.917 -1.427,4.013 -1.584,4.11 -1.794,4.161 -2.058,4.168 l -0.01,0.043 0.064,0.46 c 0.093,0 0.26,-0.006 0.502,-0.016 0.242,-0.011 0.478,-0.016 0.706,-0.016 0.313,0 0.627,0.016 0.94,0.048 0.314,0.032 0.517,0.055 0.61,0.069 L 0.786,4.682 0.743,4.265 C 0.38,4.236 0.135,4.193 0.011,4.136 -0.114,4.079 -0.176,3.976 -0.176,3.826 -0.176,3.705 -0.078,3.276 0.118,2.538 0.313,1.801 0.516,1.061 0.727,0.321 0.937,-0.421 1.074,-0.905 1.138,-1.133 H 1.203 L 2.709,2.971 2.517,3.559 C 2.446,3.766 2.336,3.915 2.186,4.008 2.036,4.1 1.826,4.154 1.555,4.168 l -0.021,0.043 0.075,0.46 c 0.092,0 0.26,-0.006 0.502,-0.016 0.242,-0.011 0.477,-0.016 0.705,-0.016 0.271,0 0.572,0.016 0.904,0.048 0.331,0.032 0.547,0.055 0.646,0.069 L 4.399,4.682 4.355,4.265 C 3.985,4.236 3.737,4.193 3.613,4.136 3.488,4.079 3.426,3.972 3.426,3.816 3.426,3.666 3.611,2.925 3.982,1.593 4.352,0.26 4.608,-0.648 4.751,-1.133 h 0.064 c 0.014,0.043 0.03,0.087 0.048,0.133 0.018,0.047 0.038,0.102 0.059,0.166 1.083,2.907 1.625,4.464 1.625,4.671 0,0.135 -0.058,0.231 -0.171,0.288 C 6.262,4.183 6.076,4.211 5.82,4.211 H 5.285 L 5.264,4.254 5.339,4.713 C 5.431,4.706 5.631,4.692 5.938,4.671 6.244,4.649 6.539,4.639 6.824,4.639 c 0.257,0 0.492,0.003 0.706,0.01 0.214,0.007 0.356,0.014 0.427,0.022 L 7.883,4.168 C 7.669,4.154 7.519,4.117 7.434,4.056 7.348,3.995 7.27,3.862 7.199,3.655 L 4.954,-2.116 4.292,-2.351 C 4.22,-2.102 4.055,-1.528 3.794,-0.631 3.534,0.267 3.255,1.204 2.956,2.18 H 2.891 L 1.373,-2.116 0.69,-2.351 C 0.59,-1.995 0.36,-1.211 0,0" style="fill:#d4b265;fill-opacity:1;fill-rule:nonzero;stroke:none" id="path144"/>
        </g>
        <g id="g146" transform="translate(142.143,811.6157)">
          <path d="M 0,0 C 0.257,0 0.588,0.018 0.994,0.053 L 0.15,2.854 H 0.075 L -0.94,0 Z m 0.599,-2.95 0.043,0.417 c 0.363,0.028 0.612,0.071 0.747,0.128 0.136,0.057 0.204,0.15 0.204,0.278 0,0.143 -0.032,0.314 -0.097,0.513 l -0.352,1.165 c -0.171,0.007 -0.542,0.011 -1.112,0.011 -0.342,0 -0.73,-0.028 -1.165,-0.086 l -0.395,-1.111 c -0.065,-0.192 -0.096,-0.332 -0.096,-0.417 0,-0.157 0.049,-0.269 0.149,-0.337 0.1,-0.068 0.264,-0.101 0.492,-0.101 h 0.609 l 0.021,-0.043 -0.064,-0.46 c -0.085,0.008 -0.281,0.022 -0.587,0.043 -0.307,0.021 -0.606,0.032 -0.899,0.032 -0.263,0 -0.507,-0.003 -0.732,-0.011 -0.224,-0.006 -0.372,-0.014 -0.443,-0.021 l 0.085,0.503 c 0.2,0.021 0.36,0.09 0.481,0.208 0.121,0.118 0.239,0.322 0.353,0.615 l 2.084,5.461 0.674,0.182 H 0.684 C 0.727,3.848 0.835,3.452 1.01,2.832 1.184,2.213 1.398,1.479 1.651,0.631 1.904,-0.217 2.148,-0.998 2.384,-1.71 2.469,-1.974 2.583,-2.159 2.726,-2.266 2.868,-2.373 3.096,-2.441 3.41,-2.469 L 3.431,-2.512 3.356,-2.95 c -0.085,0 -0.24,0.006 -0.465,0.016 -0.224,0.011 -0.447,0.016 -0.668,0.016 -0.342,0 -0.672,-0.014 -0.988,-0.042 C 0.918,-2.989 0.716,-3.01 0.631,-3.025 Z" style="fill:#d4b265;fill-opacity:1;fill-rule:nonzero;stroke:none" id="path148"/>
        </g>
        <g id="g150" transform="translate(146.1301,809.0614)">
          <path d="M 0,0 C 0.335,0.064 0.561,0.158 0.679,0.283 0.797,0.408 0.855,0.62 0.855,0.919 l 0.011,4.489 c 0,0.228 -0.027,0.381 -0.08,0.46 C 0.732,5.946 0.627,5.985 0.47,5.985 L 0.022,5.964 0,6.007 0.075,6.477 c 0.114,0 0.203,-0.004 0.267,-0.011 L 1.347,6.445 c 0.321,0 0.73,0.032 1.229,0.096 L 2.533,6.06 C 2.241,6.024 2.043,5.966 1.94,5.884 1.837,5.802 1.778,5.658 1.764,5.451 1.721,4.617 1.685,3.746 1.657,2.838 1.628,1.929 1.614,1.261 1.614,0.834 1.614,0.541 1.646,0.347 1.71,0.251 1.775,0.155 1.899,0.107 2.084,0.107 c 0.121,0 0.31,0.011 0.567,0.032 L 2.672,0.096 2.576,-0.395 c -0.1,0 -0.178,0.003 -0.235,0.01 -0.499,0.015 -0.887,0.022 -1.165,0.022 -0.35,0 -0.763,-0.043 -1.24,-0.129 z" style="fill:#d4b265;fill-opacity:1;fill-rule:nonzero;stroke:none" id="path152"/>
        </g>
        <g id="g154" transform="translate(151.5164,814.2559)">
          <path d="m 0,0 h -0.053 c -0.043,-0.47 -0.118,-1.352 -0.225,-2.646 -0.107,-1.293 -0.16,-1.996 -0.16,-2.111 0,-0.22 0.11,-0.331 0.331,-0.331 L 0.332,-5.077 0.353,-5.12 0.257,-5.601 c -0.079,0.007 -0.219,0.017 -0.422,0.027 -0.203,0.011 -0.408,0.016 -0.615,0.016 -0.178,0 -0.362,-0.012 -0.551,-0.037 -0.188,-0.025 -0.311,-0.041 -0.368,-0.048 l 0.053,0.491 c 0.228,0.029 0.392,0.102 0.492,0.219 0.099,0.118 0.164,0.319 0.192,0.604 0.071,0.67 0.166,1.573 0.284,2.709 0.117,1.137 0.176,1.773 0.176,1.908 0,0.186 -0.073,0.325 -0.219,0.417 -0.147,0.093 -0.38,0.15 -0.7,0.171 l -0.032,0.054 0.085,0.374 c 0.093,-0.007 0.274,-0.018 0.545,-0.032 0.271,-0.014 0.478,-0.021 0.62,-0.021 0.128,0 0.269,0.005 0.422,0.015 0.153,0.011 0.255,0.02 0.305,0.027 0.285,-0.919 0.561,-1.772 0.828,-2.56 0.268,-0.787 0.487,-1.412 0.657,-1.875 0.172,-0.464 0.279,-0.752 0.321,-0.866 h 0.054 c 0.099,0.263 0.327,0.891 0.684,1.881 0.356,0.99 0.744,2.123 1.165,3.399 0,0.007 0.096,0.003 0.288,-0.011 l 0.417,-0.01 c 0.135,0 0.338,0.009 0.609,0.026 C 5.818,1.295 6,1.308 6.093,1.314 L 6.114,1.272 6.06,0.876 C 5.754,0.841 5.537,0.778 5.408,0.689 5.28,0.6 5.216,0.466 5.216,0.288 c 0,-0.157 0.032,-0.739 0.096,-1.747 0.065,-1.009 0.125,-1.88 0.182,-2.613 0.036,-0.293 0.071,-0.508 0.107,-0.647 0.035,-0.139 0.086,-0.235 0.149,-0.289 0.065,-0.053 0.154,-0.08 0.268,-0.08 0.064,0 0.124,0.004 0.182,0.011 0.056,0.007 0.096,0.01 0.117,0.01 L 6.338,-5.109 6.242,-5.59 C 6.171,-5.583 6.037,-5.576 5.841,-5.569 5.645,-5.561 5.44,-5.558 5.227,-5.558 5.034,-5.558 4.819,-5.57 4.58,-5.595 4.341,-5.62 4.186,-5.636 4.115,-5.643 l 0.043,0.491 c 0.221,0.029 0.381,0.085 0.481,0.171 0.099,0.086 0.149,0.207 0.149,0.364 0,0.149 -0.051,0.844 -0.155,2.084 C 4.53,-1.293 4.461,-0.449 4.425,0 H 4.372 L 2.309,-5.686 2.052,-5.761 Z" style="fill:#d4b265;fill-opacity:1;fill-rule:nonzero;stroke:none" id="path156"/>
        </g>
        <path d="m 129.552,810.962 h -7.706 v 0.309 h 7.706 z" style="fill:#d4b265;fill-opacity:1;fill-rule:nonzero;stroke:none" id="path158"/>
        <g id="g160" transform="translate(50.9578,819.4991)">
          <path d="m 0,0 c 0,0 -7.75,-5.652 -15.209,-5.711 -0.437,0 -0.262,-0.349 -0.262,-0.349 l 2.564,-3.118 -3.671,-1.427 c 0,0 -0.758,-0.234 -2.273,0 -1.515,0.233 2.302,-1.865 2.302,-1.865 0,0 1.253,-1.107 5.71,1.224 4.458,2.33 5.449,3.146 5.449,3.146 0,0 0.845,0.612 -0.641,0.612 -1.486,0 -4.924,0.495 -4.924,0.495 l -0.088,0.175 5.478,2.652 c 0,0 4.37,2.534 5.565,4.166" style="fill:#d4b265;fill-opacity:1;fill-rule:nonzero;stroke:none" id="path162"/>
        </g>
        <g id="g164" transform="translate(52.1607,821.8008)">
          <path d="m 0,0 v -0.466 c 0,0 -0.447,-0.563 0,-1.107 0,0 0.155,-0.233 0,-0.544 -0.155,-0.311 -0.971,-1.865 -2.273,-2.758 -1.301,-0.894 -6.973,-3.924 -6.973,-3.924 0,0 -0.466,-0.214 0.136,-0.291 0.602,-0.078 3.302,-0.272 3.302,-0.272 l 1.826,1.379 c 0,0 0.136,0.077 0.369,0.058 0.233,-0.019 0.913,-0.058 0.913,-0.058 0,0 0.194,0.058 0.097,-0.156 -0.097,-0.213 -1.923,-3.321 -1.923,-3.321 0,0 -0.272,-0.33 0.156,-0.35 0.427,-0.019 3.496,-0.194 3.496,-0.194 0,0 0.252,-0.078 0.272,0.291 0.019,0.369 0.544,8.43 0.544,8.43 l -0.091,0.013 -1.858,-3.218 -0.512,0.098 -0.349,-0.007 c 0,0 -0.156,0.019 -0.033,0.123 0.123,0.104 0.965,0.874 1.269,1.191 0.305,0.318 1.47,2.305 1.613,2.558 0.142,0.252 0.272,0.744 0.252,0.978 -0.019,0.233 -0.201,0.356 -0.194,0.498 0.006,0.143 -0.052,0.246 0.123,0.479 0.175,0.233 -0.168,0.602 -0.168,0.602 z" style="fill:#d4b265;fill-opacity:1;fill-rule:nonzero;stroke:none" id="path166"/>
        </g>
        <g id="g168" transform="translate(52.5686,818.46)">
          <path d="M 0,0 C 0,0 -0.019,0.068 0.097,0.078 0.214,0.087 1.059,0 1.059,0 c 0,0 0,0.019 0.116,-0.087 0.117,-0.107 1.384,-1.449 1.564,-1.613 0.058,-0.077 -0.816,0.049 -0.816,0.049 l -0.709,0.039 c 0,0 -0.136,0.027 -0.087,-0.113 0.048,-0.14 0.728,-1.645 0.728,-1.645 0,0 0.039,-0.097 0.233,-0.097 l 2.564,-0.165 c 0,0 0.087,0.048 0.282,-0.107 L 7.08,-5.254 c 0,0 0.291,-0.146 -0.068,-0.117 -0.359,0.029 -4.04,0.262 -4.04,0.262 0,0 -0.185,-0.01 -0.117,-0.218 0.068,-0.209 0.874,-1.792 0.874,-1.792 l 0.049,-0.048 2.554,-0.146 c 0,0 0.204,-0.767 1.156,-1.641 L 7.42,-8.993 1.224,-8.67 c 0,0 -0.185,-0.032 -0.204,0.279 C 1,-8.08 0,0 0,0" style="fill:#d4b265;fill-opacity:1;fill-rule:nonzero;stroke:none" id="path170"/>
        </g>
        <g id="g172" transform="translate(54.5581,819.3923)">
          <path d="m 0,0 c 0,0 2.593,-3.341 6.546,-5.691 3.953,-2.351 4.215,-2.351 4.215,-2.351 L 6.148,-8.294 6.089,-8.372 7.459,-10.13 c 0,0 2.476,-3.195 4.953,-4.37 2.476,-1.175 4.798,2.205 4.798,2.205 l -0.049,0.126 c 0,0 -0.728,-0.903 -2.632,0.048 -1.903,0.952 -3.234,1.778 -3.234,1.778 0,0 1.369,0.34 2.195,1.321 0.825,0.98 1.039,1.311 1.039,1.311 l -0.282,0.262 c 0,0 -3.302,0.311 -7.507,2.807 C 2.535,-2.146 1.287,-1.067 0,0" style="fill:#d4b265;fill-opacity:1;fill-rule:nonzero;stroke:none" id="path174"/>
        </g>
        <g id="g176" transform="translate(32.9955,806.8937)">
          <path d="M 0,0 C 0,0 -0.379,0.35 -0.146,-0.087 0.087,-0.524 2.593,-2.72 2.593,-2.72 l 0.117,-6.909 2.301,0.422 v 6.293 l 6.643,5.609 0.598,0.51 V 3.292 H 12.121 L 5.769,-0.67 3.744,-1.602 3.278,-1.836 Z" style="fill:#d4b265;fill-opacity:1;fill-rule:nonzero;stroke:none" id="path178"/>
        </g>
        <g id="g180" transform="translate(42.8372,803.3724)">
          <path d="m 0,0 v 1.544 l 2.637,2.2 H 3.161 L 3.22,-0.117 Z M 6.268,4.455 5.336,5.388 2.539,5.504 -2.589,1.197 v -6.123 l 2.709,0.262 0.059,3.788 h 3.525 l 0.262,-3.73 2.652,0.029 z" style="fill:#d4b265;fill-opacity:1;fill-rule:nonzero;stroke:none" id="path182"/>
        </g>
        <g id="g184" transform="translate(50.0629,808.6023)">
          <path d="m 0,0 h 1.595 l 0.241,-0.536 2.561,-3.788 -0.405,4.149 h 1.69 L 6.249,-9.819 H 4.487 L 4.319,-9.452 1.836,-5.237 2.127,-9.644 H 0.32 Z" style="fill:#d4b265;fill-opacity:1;fill-rule:nonzero;stroke:none" id="path186"/>
        </g>
        <g id="g188" transform="translate(60.8764,808.1215)">
          <path d="m 0,0 -2.768,0.131 -0.903,-0.67 0.524,-8.93 c 0,0 5.565,-0.379 11.189,-1.471 0.189,0 -0.496,6.57 -0.496,6.57 0,0 -1.719,-0.496 -4.224,1.311 l -0.015,-1.02 2.52,-0.86 0.277,-4.399 -6.643,0.597 -0.947,7.765 2.404,-0.102 c 0,0 0.233,0 0.145,0.175 C 0.976,-0.728 0,0 0,0" style="fill:#d4b265;fill-opacity:1;fill-rule:nonzero;stroke:none" id="path190"/>
        </g>
        <g id="g192" transform="translate(25.8433,793.269)">
          <path d="m 0,0 c 0,0 21.646,10.314 53.448,-0.408 0,0 -10.386,2.156 -27.052,2.156 C 9.73,1.748 0,0 0,0" style="fill:#d4b265;fill-opacity:1;fill-rule:nonzero;stroke:none" id="path194"/>
        </g>
      </g>
    </g>
    <g id="g196">
      <g id="g198">
        <g id="g204">
          <g id="g206">
            <path d="M 0,535.743 H 595.275 V 742.502 H 0 Z" style="fill:url(#linearGradient216);stroke:none" id="path218"/>
          </g>
        </g>
      </g>
    </g>
    <g id="g220">
      <g id="g222" clip-path="url(#clipPath226)">
        <g id="g228" transform="translate(167.1489,684.7293)">
          <path d="M 0,0 C 0.709,0.802 1.231,1.48 1.564,2.032 1.898,2.585 2.065,3.04 2.065,3.394 2.065,3.698 1.98,3.934 1.812,4.104 1.643,4.272 1.41,4.357 1.115,4.357 0.828,4.357 0.545,4.255 0.266,4.052 -0.013,3.85 -0.248,3.575 -0.443,3.23 h -0.114 l -0.139,0.569 c 0.211,0.405 0.52,0.741 0.925,1.007 0.405,0.266 0.81,0.399 1.216,0.399 0.523,0 0.943,-0.139 1.26,-0.418 C 3.021,4.509 3.179,4.141 3.179,3.685 3.179,3.432 3.097,3.142 2.933,2.817 2.768,2.492 2.495,2.085 2.115,1.596 1.735,1.105 1.191,0.464 0.482,-0.329 l 0.05,-0.09 H 2.47 c 0.321,0 0.566,0.03 0.734,0.09 C 3.374,-0.271 3.509,-0.161 3.61,0 3.711,0.16 3.804,0.405 3.889,0.734 L 4.395,0.797 C 4.361,0.68 4.303,0.416 4.218,0.006 4.133,-0.403 4.07,-0.803 4.028,-1.191 L 3.876,-1.279 c -0.321,0.008 -0.965,0.025 -1.932,0.05 -0.966,0.026 -1.678,0.038 -2.134,0.038 L -0.873,-1.343 -1,-1.115 Z" style="fill:#d4b265;fill-opacity:1;fill-rule:nonzero;stroke:none" id="path230"/>
        </g>
        <g id="g232" transform="translate(176.7936,684.9507)">
          <path d="m 0,0 c 0.392,0.401 0.589,0.923 0.589,1.564 0,0.464 -0.098,0.878 -0.292,1.242 -0.193,0.362 -0.462,0.645 -0.804,0.848 -0.342,0.202 -0.732,0.304 -1.172,0.304 -0.633,0 -1.141,-0.201 -1.525,-0.601 -0.385,-0.402 -0.577,-0.936 -0.577,-1.603 0,-0.456 0.095,-0.864 0.285,-1.222 0.19,-0.359 0.454,-0.638 0.792,-0.836 0.338,-0.198 0.726,-0.297 1.165,-0.297 0.633,0 1.147,0.2 1.539,0.601 m -3.192,-1.172 c -0.409,0.262 -0.728,0.629 -0.956,1.102 -0.228,0.473 -0.342,1.018 -0.342,1.634 0,0.65 0.133,1.235 0.399,1.754 0.265,0.519 0.633,0.927 1.102,1.222 0.469,0.295 0.994,0.444 1.577,0.444 0.523,0 0.992,-0.129 1.406,-0.386 C 0.407,4.339 0.728,3.979 0.956,3.515 1.184,3.051 1.298,2.519 1.298,1.919 1.298,1.26 1.165,0.665 0.899,0.133 0.633,-0.399 0.267,-0.815 -0.196,-1.114 c -0.465,-0.3 -0.989,-0.45 -1.571,-0.45 -0.541,0 -1.015,0.131 -1.425,0.392" style="fill:#d4b265;fill-opacity:1;fill-rule:nonzero;stroke:none" id="path234"/>
        </g>
        <g id="g236" transform="translate(179.9153,684.7293)">
          <path d="M 0,0 C 0.709,0.802 1.231,1.48 1.564,2.032 1.898,2.585 2.065,3.04 2.065,3.394 2.065,3.698 1.98,3.934 1.812,4.104 1.643,4.272 1.41,4.357 1.115,4.357 0.828,4.357 0.545,4.255 0.266,4.052 -0.013,3.85 -0.248,3.575 -0.443,3.23 h -0.114 l -0.139,0.569 c 0.211,0.405 0.52,0.741 0.925,1.007 0.405,0.266 0.81,0.399 1.216,0.399 0.523,0 0.943,-0.139 1.26,-0.418 C 3.021,4.509 3.179,4.141 3.179,3.685 3.179,3.432 3.097,3.142 2.933,2.817 2.768,2.492 2.495,2.085 2.115,1.596 1.735,1.105 1.191,0.464 0.482,-0.329 l 0.05,-0.09 H 2.47 c 0.321,0 0.566,0.03 0.734,0.09 C 3.374,-0.271 3.509,-0.161 3.61,0 3.711,0.16 3.804,0.405 3.889,0.734 L 4.395,0.797 C 4.361,0.68 4.303,0.416 4.218,0.006 4.133,-0.403 4.07,-0.803 4.028,-1.191 L 3.876,-1.279 c -0.321,0.008 -0.965,0.025 -1.932,0.05 -0.966,0.026 -1.678,0.038 -2.134,0.038 L -0.873,-1.343 -1,-1.115 Z" style="fill:#d4b265;fill-opacity:1;fill-rule:nonzero;stroke:none" id="path238"/>
        </g>
        <g id="g240" transform="translate(185.0063,682.4052)">
          <path d="m 0,0 c -0.126,0.131 -0.198,0.374 -0.215,0.728 l 0.063,0.076 C 0.203,0.728 0.545,0.69 0.874,0.69 1.313,0.69 1.712,0.762 2.071,0.906 2.429,1.049 2.713,1.248 2.92,1.501 3.126,1.753 3.23,2.045 3.23,2.375 3.23,2.653 3.148,2.889 2.983,3.084 2.818,3.278 2.544,3.445 2.159,3.584 1.775,3.723 1.249,3.852 0.583,3.97 L 0.469,4.11 C 0.519,4.735 0.566,5.359 0.608,5.984 0.651,6.609 0.676,7.014 0.684,7.2 L 0.786,7.301 3.179,7.403 C 3.433,7.42 3.612,7.459 3.717,7.523 3.823,7.586 3.909,7.71 3.978,7.897 L 4.395,7.947 4.091,6.453 4.015,6.376 C 3.863,6.385 3.517,6.404 2.977,6.434 2.437,6.463 1.858,6.478 1.241,6.478 L 1.153,4.882 C 2.123,4.655 2.873,4.382 3.401,4.065 3.928,3.749 4.193,3.312 4.193,2.754 4.193,2.265 4.003,1.792 3.623,1.336 3.242,0.88 2.768,0.51 2.198,0.228 1.627,-0.055 1.089,-0.196 0.583,-0.196 0.321,-0.196 0.127,-0.131 0,0" style="fill:#d4b265;fill-opacity:1;fill-rule:nonzero;stroke:none" id="path242"/>
        </g>
        <g id="g244" transform="translate(199.9429,685.5637)">
          <path d="m 0,0 c 0,-0.689 -0.205,-1.237 -0.614,-1.644 -0.409,-0.406 -0.961,-0.61 -1.658,-0.61 -0.309,0 -0.678,0.056 -1.108,0.167 -0.391,0.103 -0.712,0.155 -0.961,0.155 -0.021,0.589 -0.063,1.178 -0.125,1.765 0,0.056 0.052,0.084 0.155,0.084 0.073,0 0.118,-0.028 0.135,-0.084 0.188,-0.643 0.427,-1.097 0.719,-1.36 0.29,-0.262 0.699,-0.395 1.225,-0.395 0.418,0 0.742,0.122 0.973,0.364 0.23,0.242 0.344,0.581 0.344,1.018 0,0.281 -0.099,0.541 -0.3,0.781 -0.201,0.241 -0.628,0.552 -1.283,0.933 -0.751,0.433 -1.243,0.799 -1.475,1.101 -0.232,0.301 -0.348,0.635 -0.348,1.002 0,0.564 0.209,1.041 0.627,1.431 0.418,0.389 0.947,0.584 1.589,0.584 0.242,0 0.521,-0.034 0.837,-0.099 0.294,-0.059 0.549,-0.088 0.764,-0.088 0.041,-0.61 0.097,-1.146 0.166,-1.61 0,-0.056 -0.045,-0.083 -0.135,-0.083 -0.097,0 -0.151,0.027 -0.161,0.083 -0.114,0.52 -0.288,0.893 -0.52,1.122 -0.232,0.228 -0.554,0.343 -0.964,0.343 -0.39,0 -0.699,-0.115 -0.929,-0.343 -0.229,-0.229 -0.345,-0.537 -0.345,-0.925 0,-0.245 0.097,-0.48 0.29,-0.704 C -2.909,2.765 -2.492,2.467 -1.85,2.093 -1.089,1.65 -0.59,1.279 -0.355,0.981 -0.118,0.684 0,0.356 0,0" style="fill:#d4b265;fill-opacity:1;fill-rule:nonzero;stroke:none" id="path246"/>
        </g>
        <g id="g248" transform="translate(206.034,683.6212)">
          <path d="m 0,0 c 0,-0.096 -0.028,-0.145 -0.083,-0.145 -0.138,0 -0.309,0.01 -0.514,0.031 -0.222,0.02 -0.417,0.031 -0.583,0.031 -0.175,0 -0.375,-0.011 -0.6,-0.031 -0.206,-0.021 -0.378,-0.031 -0.516,-0.031 -0.056,0 -0.084,0.049 -0.084,0.145 0,0.086 0.028,0.133 0.083,0.14 0.239,0.028 0.397,0.096 0.472,0.203 0.074,0.107 0.111,0.332 0.111,0.675 v 1.735 c 0,0.748 -0.34,1.121 -1.02,1.121 -0.431,0 -0.802,-0.173 -1.114,-0.519 V 1.018 c 0,-0.311 0.045,-0.527 0.135,-0.649 0.091,-0.121 0.267,-0.197 0.531,-0.229 0.056,-0.007 0.084,-0.054 0.084,-0.14 0,-0.096 -0.028,-0.145 -0.083,-0.145 -0.142,0 -0.327,0.01 -0.555,0.031 -0.255,0.02 -0.468,0.031 -0.638,0.031 -0.173,0 -0.37,-0.011 -0.59,-0.031 -0.198,-0.021 -0.367,-0.031 -0.51,-0.031 -0.055,0 -0.082,0.049 -0.082,0.145 0,0.086 0.027,0.133 0.082,0.14 0.291,0.032 0.48,0.1 0.567,0.206 0.086,0.105 0.129,0.329 0.129,0.671 v 4.821 c 0,0.28 -0.033,0.464 -0.101,0.55 -0.067,0.087 -0.224,0.143 -0.47,0.171 -0.055,0.007 -0.083,0.051 -0.083,0.133 0,0.091 0.028,0.137 0.083,0.137 0.59,0.139 1.027,0.322 1.31,0.551 0.051,0.042 0.095,0.062 0.129,0.062 0.097,0 0.145,-0.028 0.145,-0.083 C -3.82,6.791 -3.848,6.188 -3.848,5.552 V 3.791 c 0.497,0.471 0.987,0.707 1.469,0.707 0.493,0 0.882,-0.135 1.165,-0.405 0.283,-0.27 0.425,-0.634 0.425,-1.091 V 1.018 c 0,-0.339 0.044,-0.562 0.132,-0.667 C -0.569,0.245 -0.377,0.175 -0.083,0.14 -0.028,0.133 0,0.086 0,0" style="fill:#d4b265;fill-opacity:1;fill-rule:nonzero;stroke:none" id="path250"/>
        </g>
        <g id="g252" transform="translate(209.6012,686.8824)">
          <path d="m 0,0 c 0,0.26 -0.089,0.475 -0.267,0.647 -0.179,0.171 -0.408,0.257 -0.688,0.257 -0.267,0 -0.498,-0.112 -0.694,-0.335 -0.195,-0.223 -0.328,-0.517 -0.397,-0.88 l 1.444,0.041 c 0.218,0.004 0.372,0.024 0.464,0.063 C -0.046,-0.169 0,-0.1 0,0 m 0.945,-0.456 c 0,-0.098 -0.062,-0.146 -0.186,-0.146 h -2.846 c -0.021,-0.187 -0.032,-0.381 -0.032,-0.582 0,-0.557 0.132,-0.985 0.398,-1.285 0.265,-0.3 0.641,-0.449 1.129,-0.449 0.246,0 0.494,0.066 0.742,0.197 0.25,0.131 0.45,0.3 0.603,0.504 l 0.026,0.01 c 0.031,0 0.062,-0.019 0.091,-0.057 0.029,-0.038 0.045,-0.083 0.045,-0.135 0,-0.073 -0.112,-0.224 -0.334,-0.454 C 0.36,-3.084 0.12,-3.259 -0.14,-3.38 -0.4,-3.501 -0.671,-3.562 -0.955,-3.562 c -0.624,0 -1.148,0.229 -1.574,0.685 -0.426,0.457 -0.639,1.018 -0.639,1.683 0,0.678 0.209,1.253 0.626,1.724 0.418,0.471 0.946,0.707 1.587,0.707 0.536,0 0.987,-0.177 1.353,-0.528 0.364,-0.351 0.547,-0.74 0.547,-1.165" style="fill:#d4b265;fill-opacity:1;fill-rule:nonzero;stroke:none" id="path254"/>
        </g>
        <g id="g256" transform="translate(216.56,683.6212)">
          <path d="m 0,0 c 0,-0.096 -0.028,-0.145 -0.083,-0.145 -0.138,0 -0.309,0.01 -0.509,0.031 -0.222,0.02 -0.416,0.031 -0.585,0.031 -0.173,0 -0.371,-0.011 -0.596,-0.031 -0.204,-0.021 -0.375,-0.031 -0.512,-0.031 -0.055,0 -0.083,0.049 -0.083,0.145 0,0.086 0.028,0.133 0.083,0.14 0.239,0.028 0.396,0.096 0.47,0.203 0.074,0.107 0.112,0.332 0.112,0.675 v 1.735 c 0,0.388 -0.077,0.671 -0.229,0.851 -0.152,0.18 -0.388,0.27 -0.706,0.27 C -2.839,3.874 -3.016,3.836 -3.17,3.76 -3.324,3.684 -3.49,3.549 -3.666,3.355 V 1.018 c 0,-0.343 0.037,-0.568 0.111,-0.675 C -3.48,0.236 -3.323,0.168 -3.085,0.14 -3.03,0.133 -3.002,0.086 -3.002,0 c 0,-0.096 -0.028,-0.145 -0.083,-0.145 -0.142,0 -0.315,0.01 -0.519,0.031 -0.225,0.02 -0.422,0.031 -0.592,0.031 -0.166,0 -0.36,-0.011 -0.582,-0.031 -0.204,-0.021 -0.377,-0.031 -0.519,-0.031 -0.055,0 -0.083,0.049 -0.083,0.145 0,0.086 0.028,0.133 0.083,0.14 0.298,0.038 0.489,0.11 0.577,0.216 0.086,0.105 0.129,0.325 0.129,0.661 v 1.918 c 0,0.277 -0.036,0.458 -0.106,0.545 -0.071,0.086 -0.229,0.143 -0.475,0.171 -0.056,0 -0.084,0.046 -0.084,0.138 0,0.084 0.028,0.127 0.084,0.127 0.342,0.087 0.628,0.184 0.857,0.293 0.228,0.11 0.372,0.199 0.431,0.268 0.034,0.042 0.072,0.062 0.113,0.062 0.098,0 0.146,-0.028 0.146,-0.083 L -3.666,3.801 c 0.498,0.465 0.96,0.697 1.389,0.697 0.47,0 0.837,-0.135 1.101,-0.405 0.265,-0.27 0.397,-0.634 0.397,-1.091 V 1.018 c 0,-0.339 0.043,-0.561 0.127,-0.664 C -0.567,0.249 -0.377,0.178 -0.083,0.14 -0.028,0.133 0,0.086 0,0" style="fill:#d4b265;fill-opacity:1;fill-rule:nonzero;stroke:none" id="path258"/>
        </g>
        <g id="g260" transform="translate(224.7231,690.5566)">
          <path d="m 0,0 c 0,-0.037 -0.012,-0.07 -0.036,-0.099 -0.024,-0.029 -0.05,-0.043 -0.078,-0.043 -0.342,-0.039 -0.602,-0.11 -0.776,-0.214 -0.175,-0.105 -0.382,-0.332 -0.621,-0.68 L -3.453,-3.83 v -2.087 c 0,-0.235 0.02,-0.402 0.06,-0.499 0.039,-0.096 0.131,-0.176 0.275,-0.236 0.143,-0.061 0.363,-0.109 0.657,-0.143 0.055,-0.007 0.083,-0.054 0.083,-0.14 0,-0.097 -0.028,-0.145 -0.083,-0.145 -0.232,0 -0.494,0.01 -0.785,0.03 -0.281,0.021 -0.527,0.032 -0.74,0.032 -0.209,0 -0.465,-0.011 -0.771,-0.032 -0.321,-0.02 -0.599,-0.03 -0.831,-0.03 -0.055,0 -0.083,0.048 -0.083,0.145 0,0.086 0.028,0.133 0.083,0.14 0.42,0.049 0.704,0.126 0.854,0.234 0.151,0.107 0.226,0.321 0.226,0.644 v 2.066 l -1.796,2.82 c -0.246,0.349 -0.462,0.575 -0.649,0.68 -0.188,0.104 -0.439,0.174 -0.754,0.209 -0.055,0 -0.083,0.047 -0.083,0.142 0,0.095 0.028,0.143 0.083,0.143 0.163,0 0.385,-0.011 0.664,-0.031 0.305,-0.021 0.55,-0.031 0.737,-0.031 0.176,0 0.419,0.01 0.731,0.031 0.362,0.02 0.666,0.031 0.908,0.031 0.055,0 0.083,-0.048 0.083,-0.143 0,-0.095 -0.028,-0.142 -0.083,-0.142 -0.45,-0.063 -0.675,-0.182 -0.675,-0.357 0,-0.139 0.071,-0.319 0.212,-0.539 l 1.503,-2.34 1.57,2.348 c 0.111,0.163 0.166,0.306 0.166,0.428 0,0.132 -0.061,0.232 -0.185,0.3 -0.122,0.068 -0.331,0.121 -0.625,0.16 -0.042,0 -0.062,0.047 -0.062,0.142 0,0.095 0.028,0.143 0.082,0.143 0.205,0 0.454,-0.011 0.748,-0.031 0.288,-0.021 0.527,-0.031 0.718,-0.031 0.176,0 0.363,0.01 0.561,0.031 0.2,0.02 0.391,0.031 0.571,0.031 C -0.028,0.143 0,0.095 0,0" style="fill:#d4b265;fill-opacity:1;fill-rule:nonzero;stroke:none" id="path262"/>
        </g>
        <g id="g264" transform="translate(225.6899,685.7041)">
          <path d="m 0,0 c -1.007,-0.229 -1.511,-0.608 -1.511,-1.135 0,-0.493 0.19,-0.74 0.569,-0.74 0.182,0 0.363,0.046 0.541,0.138 0.177,0.092 0.297,0.206 0.36,0.341 z m 0.795,-2.342 c -0.193,0 -0.36,0.048 -0.503,0.142 -0.143,0.096 -0.241,0.224 -0.292,0.387 -0.371,-0.381 -0.855,-0.57 -1.455,-0.57 -0.311,0 -0.565,0.095 -0.763,0.288 -0.197,0.191 -0.296,0.432 -0.296,0.719 0,0.709 0.842,1.284 2.524,1.723 l 0.031,0.811 v 0.026 c 0,0.249 -0.061,0.447 -0.184,0.595 -0.123,0.146 -0.286,0.22 -0.491,0.22 -0.204,0 -0.377,-0.049 -0.519,-0.147 C -1.295,1.753 -1.367,1.628 -1.371,1.48 -1.374,1.258 -1.433,1.086 -1.546,0.96 -1.658,0.836 -1.807,0.773 -1.995,0.773 c -0.11,0 -0.2,0.034 -0.27,0.099 -0.069,0.066 -0.103,0.154 -0.103,0.265 0,0.266 0.242,0.546 0.727,0.839 0.484,0.292 0.934,0.439 1.35,0.439 0.374,0 0.677,-0.112 0.908,-0.333 C 0.85,1.861 0.966,1.563 0.966,1.189 V 1.127 L 0.888,-1.221 v -0.036 c 0,-0.363 0.117,-0.545 0.353,-0.545 0.115,0 0.248,0.069 0.4,0.208 l 0.036,0.01 c 0.028,0 0.054,-0.018 0.078,-0.054 0.025,-0.037 0.036,-0.076 0.036,-0.117 0,-0.101 -0.104,-0.223 -0.314,-0.369 -0.21,-0.145 -0.436,-0.218 -0.682,-0.218" style="fill:#d4b265;fill-opacity:1;fill-rule:nonzero;stroke:none" id="path266"/>
        </g>
        <g id="g268" transform="translate(233.0429,683.6212)">
          <path d="m 0,0 c 0,-0.096 -0.028,-0.145 -0.083,-0.145 -0.138,0 -0.309,0.01 -0.509,0.031 -0.222,0.02 -0.416,0.031 -0.585,0.031 -0.173,0 -0.371,-0.011 -0.596,-0.031 -0.204,-0.021 -0.375,-0.031 -0.512,-0.031 -0.055,0 -0.083,0.049 -0.083,0.145 0,0.086 0.028,0.133 0.083,0.14 0.239,0.028 0.396,0.096 0.47,0.203 0.074,0.107 0.112,0.332 0.112,0.675 v 1.735 c 0,0.388 -0.077,0.671 -0.229,0.851 -0.152,0.18 -0.388,0.27 -0.706,0.27 C -2.839,3.874 -3.016,3.836 -3.17,3.76 -3.324,3.684 -3.49,3.549 -3.666,3.355 V 1.018 c 0,-0.343 0.037,-0.568 0.111,-0.675 C -3.48,0.236 -3.323,0.168 -3.085,0.14 -3.03,0.133 -3.002,0.086 -3.002,0 c 0,-0.096 -0.028,-0.145 -0.083,-0.145 -0.142,0 -0.315,0.01 -0.519,0.031 -0.225,0.02 -0.422,0.031 -0.592,0.031 -0.166,0 -0.36,-0.011 -0.582,-0.031 -0.204,-0.021 -0.377,-0.031 -0.519,-0.031 -0.055,0 -0.083,0.049 -0.083,0.145 0,0.086 0.028,0.133 0.083,0.14 0.298,0.038 0.489,0.11 0.577,0.216 0.086,0.105 0.129,0.325 0.129,0.661 v 1.918 c 0,0.277 -0.036,0.458 -0.106,0.545 -0.071,0.086 -0.229,0.143 -0.475,0.171 -0.056,0 -0.084,0.046 -0.084,0.138 0,0.084 0.028,0.127 0.084,0.127 0.342,0.087 0.628,0.184 0.857,0.293 0.228,0.11 0.372,0.199 0.431,0.268 0.034,0.042 0.072,0.062 0.113,0.062 0.098,0 0.146,-0.028 0.146,-0.083 L -3.666,3.801 c 0.498,0.465 0.96,0.697 1.389,0.697 0.47,0 0.837,-0.135 1.101,-0.405 0.265,-0.27 0.397,-0.634 0.397,-1.091 V 1.018 c 0,-0.339 0.043,-0.561 0.127,-0.664 C -0.567,0.249 -0.377,0.178 -0.083,0.14 -0.028,0.133 0,0.086 0,0" style="fill:#d4b265;fill-opacity:1;fill-rule:nonzero;stroke:none" id="path270"/>
        </g>
        <g id="g272" transform="translate(236.4184,686.4989)">
          <path d="m 0,0 c 0,0.443 -0.068,0.768 -0.204,0.976 -0.137,0.208 -0.355,0.311 -0.656,0.311 -0.573,0 -0.859,-0.484 -0.859,-1.454 0,-0.44 0.066,-0.758 0.2,-0.958 0.132,-0.199 0.352,-0.298 0.659,-0.298 C -0.286,-1.423 0,-0.949 0,0 m 0.94,-4.138 c 0,0.239 -0.079,0.41 -0.236,0.513 -0.158,0.104 -0.422,0.16 -0.792,0.166 l -1.205,0.026 c -0.239,0 -0.451,0.035 -0.634,0.104 -0.422,-0.231 -0.633,-0.535 -0.633,-0.911 0,-0.343 0.143,-0.62 0.43,-0.832 0.288,-0.213 0.653,-0.319 1.097,-0.319 0.533,0 0.994,0.121 1.386,0.363 0.391,0.241 0.587,0.538 0.587,0.89 m 0.712,4.99 C 1.652,0.664 1.606,0.571 1.517,0.571 l -0.66,0.02 C 0.933,0.394 0.971,0.194 0.971,-0.011 0.971,-0.509 0.789,-0.924 0.425,-1.257 0.061,-1.59 -0.385,-1.756 -0.913,-1.756 H -1.12 c -0.276,0 -0.495,-0.036 -0.657,-0.109 -0.162,-0.072 -0.243,-0.158 -0.243,-0.254 0,-0.121 0.067,-0.221 0.202,-0.299 0.135,-0.078 0.323,-0.118 0.564,-0.122 l 1.202,-0.015 c 0.517,-0.011 0.921,-0.12 1.209,-0.327 0.288,-0.208 0.432,-0.497 0.432,-0.868 0,-0.561 -0.305,-1.05 -0.913,-1.47 -0.608,-0.418 -1.329,-0.628 -2.163,-0.628 -0.546,0 -1.007,0.133 -1.38,0.4 -0.373,0.266 -0.561,0.589 -0.561,0.969 0,0.256 0.119,0.506 0.356,0.75 0.238,0.243 0.517,0.422 0.839,0.536 -0.214,0.097 -0.39,0.235 -0.525,0.414 -0.135,0.179 -0.202,0.357 -0.202,0.533 0,0.125 0.127,0.259 0.381,0.402 0.255,0.142 0.519,0.237 0.792,0.286 -0.298,0.145 -0.529,0.339 -0.696,0.581 -0.166,0.243 -0.249,0.513 -0.249,0.81 0,0.478 0.185,0.895 0.553,1.252 0.368,0.356 0.806,0.535 1.315,0.535 0.269,0 0.535,-0.047 0.796,-0.14 C 0.193,1.386 0.408,1.26 0.578,1.101 l 0.939,0.03 c 0.09,0 0.135,-0.093 0.135,-0.279" style="fill:#d4b265;fill-opacity:1;fill-rule:nonzero;stroke:none" id="path274"/>
        </g>
        <path d="m 164.005,685.128 h -22.357 v 0.568 h 22.357 z" style="fill:#d4b265;fill-opacity:1;fill-rule:nonzero;stroke:none" id="path276"/>
        <path d="m 263.255,685.128 h -22.357 v 0.568 h 22.357 z" style="fill:#d4b265;fill-opacity:1;fill-rule:nonzero;stroke:none" id="path278"/>
        <g id="g280" transform="translate(142.4384,703.6938)">
          <path d="m 0,0 c 0.471,0 1.079,0.032 1.825,0.098 l -1.55,5.14 H 0.138 L -1.726,0 Z m 1.099,-5.413 0.078,0.765 c 0.667,0.051 1.125,0.13 1.373,0.235 0.248,0.104 0.373,0.274 0.373,0.51 0,0.261 -0.059,0.575 -0.177,0.942 l -0.647,2.137 c -0.314,0.013 -0.994,0.02 -2.04,0.02 -0.628,0 -1.341,-0.052 -2.138,-0.157 l -0.726,-2.04 c -0.118,-0.353 -0.176,-0.608 -0.176,-0.765 0,-0.288 0.091,-0.493 0.274,-0.618 0.183,-0.125 0.484,-0.186 0.902,-0.186 h 1.118 l 0.04,-0.078 -0.118,-0.844 c -0.157,0.013 -0.517,0.039 -1.078,0.079 -0.563,0.038 -1.112,0.058 -1.649,0.058 -0.483,0 -0.931,-0.006 -1.343,-0.02 -0.412,-0.012 -0.683,-0.026 -0.814,-0.038 l 0.156,0.921 c 0.367,0.039 0.661,0.167 0.884,0.383 0.222,0.216 0.438,0.591 0.647,1.128 L -0.137,7.043 1.099,7.376 H 1.256 C 1.334,7.061 1.533,6.336 1.854,5.198 2.174,4.06 2.566,2.714 3.031,1.158 3.495,-0.399 3.943,-1.831 4.375,-3.139 4.531,-3.622 4.74,-3.962 5.002,-4.159 5.264,-4.355 5.682,-4.479 6.258,-4.531 L 6.296,-4.609 6.16,-5.413 c -0.157,0 -0.442,0.01 -0.854,0.029 -0.412,0.019 -0.821,0.029 -1.226,0.029 -0.627,0 -1.233,-0.026 -1.814,-0.078 C 1.684,-5.485 1.314,-5.525 1.158,-5.551 Z" style="fill:#d4b265;fill-opacity:1;fill-rule:nonzero;stroke:none" id="path282"/>
        </g>
        <g id="g284" transform="translate(156.6504,704.9495)">
          <path d="m 0,0 c 0.399,0.509 0.599,1.21 0.599,2.099 0,1.006 -0.298,1.742 -0.893,2.206 -0.595,0.465 -1.527,0.697 -2.795,0.697 -0.236,0 -0.38,-0.014 -0.432,-0.04 C -3.573,4.936 -3.606,4.858 -3.619,4.727 -3.736,3.067 -3.816,1.268 -3.854,-0.667 l 2.079,-0.294 C -0.991,-0.831 -0.399,-0.51 0,0 m -6.738,-5.865 c 0.576,0.104 0.955,0.258 1.137,0.461 0.184,0.202 0.275,0.585 0.275,1.147 l 0.02,8.239 c 0,0.418 -0.049,0.7 -0.147,0.844 -0.098,0.143 -0.292,0.215 -0.579,0.215 -0.13,0 -0.262,-0.007 -0.392,-0.019 -0.131,-0.014 -0.222,-0.02 -0.275,-0.02 l -0.039,0.078 0.137,0.863 c 0.157,-0.013 0.451,-0.026 0.883,-0.039 0.432,-0.013 0.863,-0.019 1.295,-0.019 0.405,0 0.866,0.009 1.382,0.029 0.517,0.02 0.88,0.036 1.09,0.049 1.359,0 2.398,-0.301 3.118,-0.903 C 1.886,4.459 2.246,3.596 2.246,2.472 2.246,1.739 2.033,1.042 1.609,0.383 1.184,-0.278 0.625,-0.811 -0.068,-1.216 -0.762,-1.622 -1.488,-1.825 -2.246,-1.825 h -1.648 l -0.039,-1.921 c 0,-0.629 0.019,-1.077 0.059,-1.344 0.039,-0.268 0.114,-0.445 0.226,-0.53 0.111,-0.085 0.303,-0.127 0.579,-0.127 0.221,0 0.433,0.006 0.637,0.02 0.202,0.012 0.343,0.026 0.421,0.038 l 0.04,-0.078 -0.177,-0.902 c -0.131,0.013 -0.37,0.026 -0.716,0.039 -0.347,0.013 -0.709,0.02 -1.088,0.02 -0.523,0 -1.135,-0.02 -1.835,-0.059 -0.699,-0.04 -1.062,-0.072 -1.088,-0.098 z" style="fill:#d4b265;fill-opacity:1;fill-rule:nonzero;stroke:none" id="path286"/>
        </g>
        <g id="g288" transform="translate(169.7822,701.6146)">
          <path d="m 0,0 c -0.222,-1.059 -0.399,-2.158 -0.529,-3.295 l -0.098,-0.118 c -2.747,0.092 -4.728,0.137 -5.944,0.137 -0.967,0 -1.877,-0.065 -2.726,-0.196 l 0.118,0.903 c 0.587,0.078 0.99,0.231 1.206,0.461 0.216,0.229 0.323,0.624 0.323,1.186 l 0.02,8.239 c 0,0.418 -0.049,0.699 -0.147,0.843 -0.098,0.144 -0.292,0.216 -0.579,0.216 l -0.667,-0.039 -0.039,0.078 0.137,0.863 c 1.334,-0.039 2.243,-0.058 2.727,-0.058 1.556,0 2.766,0.016 3.629,0.048 0.862,0.033 1.615,0.095 2.256,0.187 L -0.255,9.337 C -0.49,8.304 -0.641,7.219 -0.706,6.081 l -0.941,-0.078 0.038,0.843 c 0,0.458 -0.058,0.774 -0.176,0.952 -0.117,0.176 -0.373,0.293 -0.765,0.353 -0.392,0.058 -1.078,0.088 -2.059,0.088 -0.458,0 -0.772,-0.014 -0.942,-0.04 C -5.721,8.173 -5.832,8.111 -5.884,8.013 -5.936,7.915 -5.97,7.735 -5.982,7.474 L -6.14,3.668 -4.119,3.649 c 0.51,0 1.308,0.071 2.393,0.215 L -1.647,3.766 -1.922,2.609 c -1.452,0.039 -2.367,0.059 -2.746,0.059 -0.432,0 -0.935,-0.046 -1.51,-0.138 l -0.079,-3.746 c 0,-0.379 0.033,-0.645 0.098,-0.794 0.065,-0.151 0.199,-0.252 0.402,-0.304 0.202,-0.052 0.553,-0.079 1.049,-0.079 1.099,0 1.881,0.053 2.344,0.157 0.465,0.104 0.795,0.314 0.991,0.627 0.197,0.315 0.347,0.851 0.451,1.609 l 0.863,0.098 z" style="fill:#d4b265;fill-opacity:1;fill-rule:nonzero;stroke:none" id="path290"/>
        </g>
        <g id="g292" transform="translate(174.5979,702.3212)">
          <path d="M 0,0 C -0.661,2.222 -1.33,4.4 -2.01,6.532 -2.128,6.911 -2.331,7.189 -2.618,7.366 -2.906,7.542 -3.292,7.637 -3.776,7.65 l -0.02,0.078 0.118,0.844 c 0.17,0 0.477,-0.01 0.922,-0.03 0.444,-0.02 0.877,-0.029 1.295,-0.029 0.575,0 1.15,0.029 1.726,0.089 0.576,0.058 0.948,0.1 1.118,0.126 L 1.442,8.592 1.364,7.827 C 0.697,7.774 0.248,7.695 0.02,7.591 -0.209,7.486 -0.323,7.296 -0.323,7.022 c 0,-0.223 0.179,-1.01 0.539,-2.364 0.359,-1.353 0.732,-2.71 1.118,-4.069 0.385,-1.361 0.637,-2.25 0.755,-2.668 H 2.207 L 4.972,5.453 4.619,6.532 C 4.489,6.911 4.286,7.186 4.012,7.356 3.737,7.525 3.351,7.623 2.854,7.65 L 2.815,7.728 2.952,8.572 c 0.171,0 0.477,-0.01 0.922,-0.03 0.445,-0.02 0.876,-0.029 1.294,-0.029 0.497,0 1.05,0.029 1.658,0.089 0.608,0.058 1.004,0.1 1.187,0.126 L 8.072,8.592 7.993,7.827 C 7.313,7.774 6.859,7.695 6.63,7.591 6.402,7.486 6.287,7.29 6.287,7.003 c 0,-0.275 0.34,-1.636 1.02,-4.08 0.68,-2.446 1.151,-4.113 1.412,-5.002 h 0.118 c 0.026,0.078 0.055,0.16 0.089,0.245 0.032,0.085 0.068,0.186 0.107,0.304 1.988,5.335 2.982,8.193 2.982,8.572 0,0.248 -0.106,0.424 -0.314,0.529 -0.209,0.105 -0.549,0.157 -1.02,0.157 H 9.7 L 9.661,7.807 9.798,8.65 c 0.17,-0.013 0.536,-0.039 1.099,-0.078 0.561,-0.04 1.104,-0.059 1.627,-0.059 0.471,0 0.903,0.007 1.296,0.019 0.392,0.014 0.653,0.026 0.784,0.04 L 14.467,7.65 C 14.074,7.623 13.8,7.555 13.643,7.444 13.486,7.332 13.342,7.088 13.211,6.709 L 9.092,-3.884 7.876,-4.315 C 7.745,-3.858 7.441,-2.805 6.963,-1.158 6.486,0.491 5.973,2.21 5.424,4.001 H 5.306 L 2.52,-3.884 1.266,-4.315 C 1.082,-3.662 0.661,-2.223 0,0" style="fill:#d4b265;fill-opacity:1;fill-rule:nonzero;stroke:none" id="path294"/>
        </g>
        <g id="g296" transform="translate(194.5076,705.1458)">
          <path d="m 0,0 c 0.464,-0.04 0.846,-0.066 1.148,-0.078 0,-0.04 0.169,0.029 0.509,0.205 C 1.997,0.304 2.305,0.579 2.58,0.951 2.854,1.324 2.991,1.824 2.991,2.452 2.991,3.288 2.71,3.91 2.148,4.315 1.585,4.72 0.716,4.924 -0.461,4.924 -0.592,4.924 -0.68,4.894 -0.725,4.835 -0.771,4.776 -0.801,4.655 -0.814,4.472 -0.893,3.217 -0.951,1.752 -0.991,0.078 -0.795,0.065 -0.464,0.039 0,0 m -1.108,-4.629 c 0,-0.497 0.169,-0.851 0.509,-1.06 0.341,-0.209 0.916,-0.314 1.727,-0.314 0.785,0 1.402,0.22 1.853,0.658 0.452,0.438 0.677,1.03 0.677,1.775 0,0.706 -0.222,1.285 -0.667,1.736 -0.445,0.451 -1.105,0.755 -1.981,0.912 L -1.03,-0.961 Z M -3.227,-6.905 C -3.698,-6.97 -4.005,-7.016 -4.149,-7.042 l 0.118,0.902 c 0.602,0.118 1.007,0.291 1.216,0.52 0.209,0.228 0.314,0.618 0.314,1.167 l 0.019,8.239 c 0,0.418 -0.048,0.699 -0.146,0.843 -0.098,0.143 -0.292,0.215 -0.579,0.215 -0.131,0 -0.262,-0.006 -0.393,-0.018 -0.13,-0.014 -0.222,-0.02 -0.274,-0.02 l -0.04,0.078 0.138,0.863 c 0.157,-0.013 0.451,-0.026 0.883,-0.039 0.431,-0.013 0.862,-0.019 1.294,-0.019 0.445,0 0.9,0.009 1.363,0.029 0.465,0.019 0.781,0.036 0.952,0.049 1.242,0 2.197,-0.258 2.864,-0.775 0.667,-0.517 1,-1.252 1,-2.207 C 4.58,2.131 4.381,1.543 3.982,1.02 3.582,0.497 3.023,0.078 2.305,-0.236 3.259,-0.445 4.005,-0.811 4.541,-1.334 5.077,-1.857 5.345,-2.485 5.345,-3.217 5.345,-3.884 5.132,-4.509 4.708,-5.09 4.283,-5.673 3.717,-6.137 3.011,-6.483 2.305,-6.829 1.546,-7.003 0.735,-7.003 c -0.352,0 -0.758,0.033 -1.216,0.098 -0.745,0.066 -1.223,0.098 -1.432,0.098 -0.405,0 -0.843,-0.032 -1.314,-0.098" style="fill:#d4b265;fill-opacity:1;fill-rule:nonzero;stroke:none" id="path298"/>
        </g>
        <g id="g300" transform="translate(220.1241,702.3212)">
          <path d="M 0,0 C -0.661,2.222 -1.33,4.4 -2.01,6.532 -2.128,6.911 -2.331,7.189 -2.618,7.366 -2.906,7.542 -3.292,7.637 -3.776,7.65 l -0.02,0.078 0.118,0.844 c 0.17,0 0.477,-0.01 0.922,-0.03 0.444,-0.02 0.877,-0.029 1.295,-0.029 0.575,0 1.15,0.029 1.726,0.089 0.576,0.058 0.948,0.1 1.118,0.126 L 1.442,8.592 1.364,7.827 C 0.697,7.774 0.248,7.695 0.02,7.591 -0.209,7.486 -0.323,7.296 -0.323,7.022 c 0,-0.223 0.179,-1.01 0.539,-2.364 0.359,-1.353 0.732,-2.71 1.118,-4.069 0.385,-1.361 0.637,-2.25 0.755,-2.668 H 2.207 L 4.972,5.453 4.619,6.532 C 4.489,6.911 4.286,7.186 4.012,7.356 3.737,7.525 3.351,7.623 2.854,7.65 L 2.815,7.728 2.952,8.572 c 0.171,0 0.477,-0.01 0.922,-0.03 0.445,-0.02 0.876,-0.029 1.294,-0.029 0.497,0 1.05,0.029 1.658,0.089 0.608,0.058 1.004,0.1 1.187,0.126 L 8.072,8.592 7.993,7.827 C 7.313,7.774 6.859,7.695 6.63,7.591 6.402,7.486 6.287,7.29 6.287,7.003 c 0,-0.275 0.34,-1.636 1.02,-4.08 0.68,-2.446 1.151,-4.113 1.412,-5.002 h 0.118 c 0.026,0.078 0.055,0.16 0.089,0.245 0.032,0.085 0.068,0.186 0.107,0.304 1.988,5.335 2.982,8.193 2.982,8.572 0,0.248 -0.106,0.424 -0.314,0.529 -0.209,0.105 -0.549,0.157 -1.02,0.157 H 9.7 L 9.661,7.807 9.798,8.65 c 0.17,-0.013 0.536,-0.039 1.099,-0.078 0.562,-0.04 1.104,-0.059 1.627,-0.059 0.471,0 0.903,0.007 1.296,0.019 0.392,0.014 0.653,0.026 0.784,0.04 L 14.467,7.65 C 14.074,7.623 13.8,7.555 13.643,7.444 13.486,7.332 13.342,7.088 13.211,6.709 L 9.092,-3.884 7.876,-4.315 C 7.745,-3.858 7.441,-2.805 6.963,-1.158 6.486,0.491 5.973,2.21 5.424,4.001 H 5.306 L 2.52,-3.884 1.266,-4.315 C 1.082,-3.662 0.661,-2.223 0,0" style="fill:#d4b265;fill-opacity:1;fill-rule:nonzero;stroke:none" id="path302"/>
        </g>
        <g id="g304" transform="translate(239.2786,703.6938)">
          <path d="m 0,0 c 0.471,0 1.079,0.032 1.825,0.098 l -1.55,5.14 H 0.138 L -1.726,0 Z m 1.099,-5.413 0.078,0.765 c 0.667,0.051 1.125,0.13 1.373,0.235 0.248,0.104 0.373,0.274 0.373,0.51 0,0.261 -0.059,0.575 -0.177,0.942 l -0.647,2.137 c -0.314,0.013 -0.994,0.02 -2.04,0.02 -0.628,0 -1.341,-0.052 -2.138,-0.157 l -0.726,-2.04 c -0.118,-0.353 -0.176,-0.608 -0.176,-0.765 0,-0.288 0.091,-0.493 0.274,-0.618 0.183,-0.125 0.484,-0.186 0.902,-0.186 h 1.118 l 0.04,-0.078 -0.118,-0.844 c -0.157,0.013 -0.517,0.039 -1.078,0.079 -0.563,0.038 -1.112,0.058 -1.649,0.058 -0.483,0 -0.931,-0.006 -1.343,-0.02 -0.412,-0.012 -0.683,-0.026 -0.814,-0.038 l 0.156,0.921 c 0.367,0.039 0.661,0.167 0.883,0.383 0.223,0.216 0.439,0.591 0.648,1.128 L -0.137,7.043 1.099,7.376 H 1.256 C 1.334,7.061 1.533,6.336 1.854,5.198 2.174,4.06 2.566,2.714 3.031,1.158 3.495,-0.399 3.943,-1.831 4.375,-3.139 4.531,-3.622 4.74,-3.962 5.002,-4.159 5.264,-4.355 5.682,-4.479 6.258,-4.531 L 6.296,-4.609 6.16,-5.413 c -0.157,0 -0.442,0.01 -0.854,0.029 -0.412,0.019 -0.821,0.029 -1.226,0.029 -0.627,0 -1.233,-0.026 -1.814,-0.078 C 1.684,-5.485 1.314,-5.525 1.158,-5.551 Z" style="fill:#d4b265;fill-opacity:1;fill-rule:nonzero;stroke:none" id="path306"/>
        </g>
        <g id="g308" transform="translate(246.5956,699.006)">
          <path d="m 0,0 c 0.615,0.118 1.03,0.291 1.246,0.519 0.216,0.229 0.323,0.619 0.323,1.168 l 0.02,8.239 c 0,0.417 -0.049,0.699 -0.147,0.843 -0.098,0.143 -0.292,0.215 -0.579,0.215 L 0.04,10.945 0,11.024 0.138,11.887 c 0.209,0 0.372,-0.007 0.489,-0.02 l 1.845,-0.039 c 0.588,0 1.34,0.059 2.255,0.177 L 4.649,11.122 C 4.113,11.056 3.75,10.948 3.56,10.798 3.371,10.648 3.263,10.383 3.237,10.004 3.159,8.474 3.093,6.875 3.041,5.208 2.988,3.54 2.962,2.314 2.962,1.53 2.962,0.994 3.021,0.637 3.139,0.461 3.257,0.284 3.485,0.196 3.826,0.196 c 0.221,0 0.568,0.02 1.039,0.059 L 4.904,0.176 4.727,-0.725 c -0.183,0 -0.326,0.006 -0.431,0.018 -0.916,0.027 -1.628,0.04 -2.138,0.04 -0.641,0 -1.399,-0.078 -2.276,-0.236 z" style="fill:#d4b265;fill-opacity:1;fill-rule:nonzero;stroke:none" id="path310"/>
        </g>
        <g id="g312" transform="translate(256.4807,708.5392)">
          <path d="m 0,0 h -0.098 c -0.078,-0.863 -0.215,-2.482 -0.411,-4.855 -0.197,-2.374 -0.295,-3.665 -0.295,-3.874 0,-0.405 0.203,-0.608 0.608,-0.608 l 0.804,0.02 0.039,-0.079 -0.176,-0.882 c -0.144,0.012 -0.402,0.029 -0.774,0.048 -0.373,0.02 -0.749,0.03 -1.128,0.03 -0.328,0 -0.664,-0.023 -1.011,-0.068 -0.347,-0.046 -0.572,-0.076 -0.677,-0.089 l 0.098,0.902 c 0.419,0.052 0.719,0.187 0.903,0.403 0.183,0.216 0.301,0.585 0.353,1.108 0.13,1.228 0.304,2.886 0.52,4.972 0.215,2.085 0.323,3.253 0.323,3.501 0,0.341 -0.134,0.595 -0.402,0.765 -0.268,0.171 -0.696,0.275 -1.285,0.315 l -0.058,0.098 0.157,0.686 c 0.17,-0.013 0.503,-0.033 1,-0.059 0.496,-0.026 0.876,-0.039 1.137,-0.039 0.236,0 0.495,0.009 0.775,0.029 0.281,0.02 0.468,0.036 0.559,0.05 0.523,-1.687 1.03,-3.253 1.521,-4.699 0.49,-1.445 0.893,-2.592 1.206,-3.442 0.314,-0.851 0.51,-1.38 0.588,-1.589 h 0.099 c 0.182,0.484 0.601,1.635 1.255,3.452 0.654,1.818 1.367,3.897 2.138,6.238 0,0.013 0.176,0.006 0.529,-0.02 L 9.062,2.295 c 0.249,0 0.621,0.017 1.118,0.049 0.497,0.032 0.831,0.056 1.001,0.068 L 11.22,2.334 11.122,1.609 C 10.56,1.543 10.161,1.429 9.926,1.265 9.691,1.102 9.573,0.856 9.573,0.529 c 0,-0.288 0.058,-1.356 0.176,-3.207 0.118,-1.85 0.229,-3.449 0.333,-4.796 0.066,-0.536 0.132,-0.931 0.196,-1.186 0.066,-0.256 0.158,-0.432 0.275,-0.53 0.118,-0.098 0.282,-0.147 0.491,-0.147 0.117,0 0.228,0.006 0.334,0.02 0.104,0.012 0.176,0.019 0.215,0.019 l 0.039,-0.079 -0.176,-0.882 c -0.132,0.013 -0.376,0.026 -0.736,0.039 -0.36,0.014 -0.736,0.02 -1.127,0.02 -0.354,0 -0.749,-0.023 -1.188,-0.068 -0.438,-0.046 -0.723,-0.076 -0.853,-0.089 l 0.078,0.902 c 0.406,0.052 0.7,0.157 0.883,0.314 0.183,0.157 0.275,0.379 0.275,0.667 0,0.275 -0.095,1.549 -0.285,3.825 C 8.313,-2.374 8.187,-0.824 8.121,0 H 8.023 L 4.237,-10.436 3.766,-10.573 Z" style="fill:#d4b265;fill-opacity:1;fill-rule:nonzero;stroke:none" id="path314"/>
        </g>
        <path d="m 216.171,702.494 h -14.142 v 0.568 h 14.142 z" style="fill:#d4b265;fill-opacity:1;fill-rule:nonzero;stroke:none" id="path316"/>
        <g id="g318" transform="translate(71.9339,718.1616)">
          <path d="m 0,0 c 0,0 -14.223,-10.373 -27.912,-10.48 -0.802,0 -0.481,-0.642 -0.481,-0.642 l 4.705,-5.721 -6.737,-2.62 c 0,0 -1.39,-0.428 -4.171,0 -2.78,0.427 4.225,-3.422 4.225,-3.422 0,0 2.299,-2.032 10.48,2.245 8.181,4.278 9.999,5.775 9.999,5.775 0,0 1.551,1.123 -1.176,1.123 -2.727,0 -9.037,0.909 -9.037,0.909 l -0.16,0.321 10.052,4.866 c 0,0 8.021,4.652 10.213,7.646" style="fill:#d4b265;fill-opacity:1;fill-rule:nonzero;stroke:none" id="path320"/>
        </g>
        <g id="g322" transform="translate(74.1414,722.3858)">
          <path d="m 0,0 v -0.856 c 0,0 -0.82,-1.033 0,-2.031 0,0 0.285,-0.428 0,-0.999 -0.285,-0.57 -1.782,-3.422 -4.171,-5.061 -2.388,-1.64 -12.797,-7.201 -12.797,-7.201 0,0 -0.856,-0.392 0.249,-0.535 1.106,-0.143 6.06,-0.499 6.06,-0.499 l 3.351,2.531 c 0,0 0.25,0.143 0.678,0.107 0.427,-0.036 1.675,-0.107 1.675,-0.107 0,0 0.357,0.107 0.178,-0.285 -0.178,-0.392 -3.529,-6.096 -3.529,-6.096 0,0 -0.499,-0.606 0.285,-0.642 0.785,-0.035 6.417,-0.356 6.417,-0.356 0,0 0.463,-0.143 0.499,0.535 0.036,0.677 0.998,15.471 0.998,15.471 l -0.166,0.023 -3.411,-5.905 -0.938,0.178 -0.642,-0.012 c 0,0 -0.285,0.036 -0.059,0.226 0.225,0.19 1.77,1.604 2.329,2.186 0.558,0.583 2.697,4.23 2.958,4.694 0.262,0.463 0.499,1.366 0.464,1.794 -0.036,0.428 -0.369,0.654 -0.357,0.915 0.012,0.261 -0.095,0.452 0.226,0.879 0.321,0.428 -0.309,1.105 -0.309,1.105 z" style="fill:#d4b265;fill-opacity:1;fill-rule:nonzero;stroke:none" id="path324"/>
        </g>
        <g id="g326" transform="translate(74.8899,716.2545)">
          <path d="M 0,0 C 0,0 -0.036,0.125 0.178,0.143 0.392,0.16 1.943,0 1.943,0 c 0,0 0,0.036 0.214,-0.16 0.214,-0.196 2.538,-2.658 2.869,-2.959 0.107,-0.143 -1.497,0.089 -1.497,0.089 l -1.301,0.071 c 0,0 -0.25,0.05 -0.16,-0.206 0.089,-0.257 1.336,-3.02 1.336,-3.02 0,0 0.072,-0.178 0.428,-0.178 l 4.706,-0.303 c 0,0 0.16,0.089 0.516,-0.196 l 3.939,-2.781 c 0,0 0.535,-0.267 -0.124,-0.213 -0.66,0.053 -7.415,0.481 -7.415,0.481 0,0 -0.339,-0.019 -0.214,-0.402 0.125,-0.382 1.604,-3.288 1.604,-3.288 l 0.089,-0.089 4.688,-0.267 c 0,0 0.374,-1.408 2.121,-3.012 l -0.125,-0.072 -11.371,0.594 c 0,0 -0.339,-0.059 -0.375,0.511 C 1.836,-14.829 0,0 0,0" style="fill:#d4b265;fill-opacity:1;fill-rule:nonzero;stroke:none" id="path328"/>
        </g>
        <g id="g330" transform="translate(78.5411,717.9655)">
          <path d="m 0,0 c 0,0 4.759,-6.131 12.013,-10.445 7.254,-4.313 7.736,-4.313 7.736,-4.313 l -8.467,-0.463 -0.107,-0.143 2.514,-3.226 c 0,0 4.545,-5.864 9.09,-8.021 4.545,-2.156 8.804,4.046 8.804,4.046 l -0.089,0.232 c 0,0 -1.336,-1.658 -4.83,0.089 -3.493,1.747 -5.935,3.262 -5.935,3.262 0,0 2.513,0.624 4.028,2.424 1.515,1.8 1.907,2.406 1.907,2.406 l -0.517,0.481 c 0,0 -6.06,0.571 -13.777,5.151 C 4.652,-3.939 2.361,-1.958 0,0" style="fill:#d4b265;fill-opacity:1;fill-rule:nonzero;stroke:none" id="path332"/>
        </g>
        <g id="g334" transform="translate(38.9691,695.0279)">
          <path d="M 0,0 C 0,0 -0.695,0.642 -0.267,-0.16 0.16,-0.962 4.759,-4.992 4.759,-4.992 l 0.214,-12.68 4.224,0.775 v 11.55 l 12.191,10.293 1.096,0.936 v 0.16 h -0.24 L 10.587,-1.23 6.871,-2.941 6.015,-3.369 Z" style="fill:#d4b265;fill-opacity:1;fill-rule:nonzero;stroke:none" id="path336"/>
        </g>
        <g id="g338" transform="translate(57.0307,688.5655)">
          <path d="M 0,0 V 2.834 L 4.839,6.871 H 5.802 L 5.909,-0.214 Z M 11.503,8.177 9.792,9.888 4.659,10.102 -4.752,2.196 V -9.041 l 4.973,0.481 0.107,6.952 h 6.47 l 0.481,-6.845 4.866,0.054 z" style="fill:#d4b265;fill-opacity:1;fill-rule:nonzero;stroke:none" id="path340"/>
        </g>
        <g id="g342" transform="translate(70.2915,698.1635)">
          <path d="m 0,0 h 2.928 l 0.441,-0.984 4.7,-6.952 -0.743,7.615 h 3.101 L 11.468,-18.02 H 8.234 l -0.308,0.674 -4.557,7.735 0.534,-8.088 H 0.588 Z" style="fill:#d4b265;fill-opacity:1;fill-rule:nonzero;stroke:none" id="path344"/>
        </g>
        <g id="g346" transform="translate(90.1367,697.2812)">
          <path d="m 0,0 -5.08,0.241 -1.657,-1.23 0.962,-16.389 c 0,0 10.213,-0.695 20.533,-2.7 0.347,0 -0.909,12.057 -0.909,12.057 0,0 -3.155,-0.909 -7.753,2.407 l -0.027,-1.872 4.625,-1.577 0.508,-8.074 -12.191,1.096 -1.738,14.25 4.411,-0.187 c 0,0 0.428,0 0.268,0.32 C 1.791,-1.337 0,0 0,0" style="fill:#d4b265;fill-opacity:1;fill-rule:nonzero;stroke:none" id="path348"/>
        </g>
        <g id="g350" transform="translate(25.8433,670.0237)">
          <path d="m 0,0 c 0,0 39.724,18.929 98.089,-0.749 0,0 -19.061,3.957 -49.647,3.957 C 17.857,3.208 0,0 0,0" style="fill:#d4b265;fill-opacity:1;fill-rule:nonzero;stroke:none" id="path352"/>
        </g>
      </g>
    </g>
  </g>
</svg>